<?xml version="1.0" encoding="UTF-8" standalone="no"?>
<svg
   xmlns:dc="http://purl.org/dc/elements/1.1/"
   xmlns:cc="http://creativecommons.org/ns#"
   xmlns:rdf="http://www.w3.org/1999/02/22-rdf-syntax-ns#"
   xmlns:svg="http://www.w3.org/2000/svg"
   xmlns="http://www.w3.org/2000/svg"
   xmlns:sodipodi="http://sodipodi.sourceforge.net/DTD/sodipodi-0.dtd"
   xmlns:inkscape="http://www.inkscape.org/namespaces/inkscape"
   sodipodi:docname="fastmap.svg"
   inkscape:version="1.0 (4035a4f, 2020-05-01)"
   id="svg126"
   version="1.1"
   viewBox="0 0 211.66667 211.66666"
   height="800"
   width="800">
  <defs
     id="defs120" />
  <sodipodi:namedview
     inkscape:window-maximized="0"
     inkscape:window-y="23"
     inkscape:window-x="0"
     inkscape:window-height="943"
     inkscape:window-width="1434"
     width="200mm"
     units="px"
     inkscape:guide-bbox="true"
     showguides="true"
     showgrid="false"
     inkscape:document-rotation="0"
     inkscape:current-layer="layer1"
     inkscape:document-units="px"
     inkscape:cy="414.8684"
     inkscape:cx="303.6708"
     inkscape:zoom="0.5"
     inkscape:pageshadow="2"
     inkscape:pageopacity="0.0"
     borderopacity="1.0"
     bordercolor="#666666"
     pagecolor="#ffffff"
     id="base" />
  <metadata
     id="metadata123">
    <rdf:RDF>
      <cc:Work
         rdf:about="">
        <dc:format>image/svg+xml</dc:format>
        <dc:type
           rdf:resource="http://purl.org/dc/dcmitype/StillImage" />
        <dc:title></dc:title>
      </cc:Work>
    </rdf:RDF>
  </metadata>
  <g
     id="layer1"
     inkscape:groupmode="layer"
     inkscape:label="Calque 1">
    <path
       d="m 59.069897,17.228773 a 14.767484,14.767484 0 0 0 -14.767601,14.767601 14.767484,14.767484 0 0 0 14.767601,14.767094 14.767484,14.767484 0 0 0 5.545928,-1.081613 c 8.663387,10.078977 17.299622,20.182275 25.955609,30.268318 0.597806,0.697469 1.195547,1.395026 1.793358,2.092504 A 34.457463,34.457463 0 0 0 85.320585,90.41405 C 66.701536,86.867549 48.082465,83.321216 29.463471,79.774479 A 14.767482,14.767482 0 0 0 14.767603,66.453775 14.767482,14.767482 0 0 0 2.0196441e-6,81.221368 14.767482,14.767482 0 0 0 14.767603,95.98847 a 14.767482,14.767482 0 0 0 13.13501,-8.02 c 18.620646,3.53602 37.238818,7.08448 55.857115,10.63296 a 34.457463,34.457463 0 0 0 -0.07733,2.30974 34.457463,34.457463 0 0 0 9.39211,23.64382 c -9.153234,10.67784 -18.306317,21.35579 -27.459487,32.0337 a 14.767484,14.767484 0 0 0 -6.545121,-1.53033 14.767484,14.767484 0 0 0 -14.767601,14.7676 14.767484,14.767484 0 0 0 14.767601,14.76709 14.767484,14.767484 0 0 0 14.767094,-14.76709 14.767484,14.767484 0 0 0 -2.684188,-8.48857 c 0.849909,-0.98836 1.69851,-1.97758 2.543261,-2.9701 8.308772,-9.68607 16.612278,-19.37654 24.91622,-29.06664 a 34.457463,34.457463 0 0 0 19.527503,6.06791 34.457463,34.457463 0 0 0 15.06421,-3.46767 c 7.82845,12.52236 15.65582,25.04554 23.48306,37.56894 a 14.767484,14.767484 0 0 0 -1.93835,2.52545 14.767484,14.767484 0 0 0 4.94,20.29115 14.767484,14.767484 0 0 0 20.29165,-4.94051 14.767484,14.767484 0 0 0 -4.94051,-20.29115 14.767484,14.767484 0 0 0 -12.14752,-1.45758 c -0.53922,-0.86384 -1.07905,-1.72744 -1.62343,-2.58803 -7.29182,-11.65898 -14.58096,-23.31977 -21.87032,-34.98039 a 34.457463,34.457463 0 0 0 12.28794,-19.24972 c 2.91223,0.36412 5.82423,0.73037 8.73683,1.09178 7.27483,0.90897 14.54969,1.81817 21.82453,2.72743 a 14.767484,14.767484 0 0 0 6.97603,10.77337 14.767484,14.767484 0 0 0 20.29166,-4.94051 14.767484,14.767484 0 0 0 -4.94103,-20.29114 14.767484,14.767484 0 0 0 -7.68523,-2.15101 14.767484,14.767484 0 0 0 -12.6054,7.09101 14.767484,14.767484 0 0 0 -1.12689,2.27109 c -2.05128,-0.26081 -4.10269,-0.52019 -6.15541,-0.76823 -8.13681,-1.01498 -16.27366,-2.0303 -24.41052,-3.0454 a 34.457463,34.457463 0 0 0 0.006,-0.62627 34.457463,34.457463 0 0 0 -7.31537,-21.227255 c 8.29169,-8.289186 16.57954,-16.582708 24.87247,-24.870435 a 14.767484,14.767484 0 0 0 19.67149,-5.297145 14.767484,14.767484 0 0 0 -4.94103,-20.291143 14.767484,14.767484 0 0 0 -7.68523,-2.151522 14.767484,14.767484 0 0 0 -12.60591,7.091521 14.767484,14.767484 0 0 0 -0.3485,14.745219 c -8.289,8.288905 -16.57794,16.577886 -24.86687,24.866876 A 34.457463,34.457463 0 0 0 118.1396,66.453775 34.457463,34.457463 0 0 0 99.495297,71.933555 C 97.915867,70.090868 96.336035,68.248152 94.753195,66.408493 87.084541,57.461904 79.415427,48.515644 71.74652,39.569178 A 14.767484,14.767484 0 0 0 73.836991,31.996374 14.767484,14.767484 0 0 0 59.069897,17.228773 Z m -0.01984,9.844897 a 4.922495,4.922495 0 0 1 0.01984,0 4.922495,4.922495 0 0 1 0.569805,0.03307 4.922495,4.922495 0 0 1 5.1e-4,0 4.922495,4.922495 0 0 1 0.282357,0.04121 4.922495,4.922495 0 0 1 0.186714,0.03663 4.922495,4.922495 0 0 1 0.0931,0.02136 4.922495,4.922495 0 0 1 0.184168,0.04731 4.922495,4.922495 0 0 1 0.362743,0.115996 4.922495,4.922495 0 0 1 0.265569,0.105312 4.922495,4.922495 0 0 1 0.173486,0.07835 4.922495,4.922495 0 0 1 0.170431,0.08547 4.922495,4.922495 0 0 1 0.166872,0.09158 4.922495,4.922495 0 0 1 0.08191,0.04833 4.922495,4.922495 0 0 1 0.06766,0.04172 4.922495,4.922495 0 0 1 1.920037,2.240045 4.922495,4.922495 0 0 1 0.03663,0.08801 4.922495,4.922495 0 0 1 0.02443,0.06156 4.922495,4.922495 0 0 1 0,5.07e-4 4.922495,4.922495 0 0 1 0.02239,0.058 4.922495,4.922495 0 0 1 0.01171,0.03052 4.922495,4.922495 0 0 1 0.0096,0.02697 4.922495,4.922495 0 0 1 0.02188,0.06258 4.922495,4.922495 0 0 1 0.02136,0.0636 4.922495,4.922495 0 0 1 0.0092,0.02696 4.922495,4.922495 0 0 1 0.0087,0.02748 4.922495,4.922495 0 0 1 0,9.85e-4 4.922495,4.922495 0 0 1 0.02696,0.087 4.922495,4.922495 0 0 1 9.85e-4,0.0031 4.922495,4.922495 0 0 1 0.01831,0.06359 4.922495,4.922495 0 0 1 0.0077,0.02798 4.922495,4.922495 0 0 1 5.08e-4,0.0021 4.922495,4.922495 0 0 1 0.02391,0.09005 4.922495,4.922495 0 0 1 0.02086,0.08344 4.922495,4.922495 0 0 1 0.0021,0.0087 4.922495,4.922495 0 0 1 0.01476,0.06461 4.922495,4.922495 0 0 1 0.0061,0.02849 4.922495,4.922495 0 0 1 0.01323,0.06512 4.922495,4.922495 0 0 1 0.0056,0.02798 4.922495,4.922495 0 0 1 0.01221,0.06513 4.922495,4.922495 0 0 1 0.0051,0.02849 4.922495,4.922495 0 0 1 0.0026,0.01476 4.922495,4.922495 0 0 1 0.01272,0.07937 4.922495,4.922495 0 0 1 0.0096,0.06563 4.922495,4.922495 0 0 1 0.004,0.02849 4.922495,4.922495 0 0 1 0.0026,0.02239 4.922495,4.922495 0 0 1 0.0092,0.07224 4.922495,4.922495 0 0 1 0.0071,0.06614 4.922495,4.922495 0 0 1 0,5.11e-4 4.922495,4.922495 0 0 1 0.0061,0.06818 4.922495,4.922495 0 0 1 0.0046,0.05495 4.922495,4.922495 0 0 1 0.0061,0.0875 4.922495,4.922495 0 0 1 5.08e-4,0.0071 4.922495,4.922495 0 0 1 0.0031,0.06664 4.922495,4.922495 0 0 1 9.84e-4,0.02849 4.922495,4.922495 0 0 1 0.0021,0.06665 4.922495,4.922495 0 0 1 0.0016,0.08395 4.922495,4.922495 0 0 1 0,0.01119 4.922495,4.922495 0 0 1 0,0.01934 4.922495,4.922495 0 0 1 -0.07428,0.852672 4.922495,4.922495 0 0 1 -0.03663,0.186714 4.922495,4.922495 0 0 1 -0.02136,0.0931 4.922495,4.922495 0 0 1 -0.02239,0.09208 4.922495,4.922495 0 0 1 -0.140925,0.454828 4.922495,4.922495 0 0 1 -0.03307,0.08903 4.922495,4.922495 0 0 1 0,5.1e-4 4.922495,4.922495 0 0 1 -0.03511,0.08801 4.922495,4.922495 0 0 1 -0.200957,0.431931 4.922495,4.922495 0 0 1 -0.04478,0.08344 4.922495,4.922495 0 0 1 -0.24929,0.405477 4.922495,4.922495 0 0 1 -0.110907,0.155171 4.922495,4.922495 0 0 1 -0.176537,0.224362 4.922495,4.922495 0 0 1 -0.06156,0.07224 4.922495,4.922495 0 0 1 -0.843006,0.76822 4.922495,4.922495 0 0 1 -0.156696,0.107854 4.922495,4.922495 0 0 1 -2.714712,0.816552 4.922495,4.922495 0 0 1 -0.85267,-0.07428 4.922495,4.922495 0 0 1 -0.186714,-0.03663 4.922495,4.922495 0 0 1 -0.185187,-0.04375 4.922495,4.922495 0 0 1 -5.08e-4,0 4.922495,4.922495 0 0 1 -0.09158,-0.02493 4.922495,4.922495 0 0 1 -0.182645,-0.05443 4.922495,4.922495 0 0 1 -0.180098,-0.06156 4.922495,4.922495 0 0 1 -0.08903,-0.03307 4.922495,4.922495 0 0 1 -5.07e-4,0 4.922495,4.922495 0 0 1 -0.08801,-0.03511 4.922495,4.922495 0 0 1 -5.1e-4,0 4.922495,4.922495 0 0 1 -0.346459,-0.157204 4.922495,4.922495 0 0 1 -0.168908,-0.08853 4.922495,4.922495 0 0 1 -0.318988,-0.1918 4.922495,4.922495 0 0 1 -2.230886,-4.120906 4.922495,4.922495 0 0 1 4.25827,-4.877425 4.922495,4.922495 0 0 1 0.09463,-0.01221 4.922495,4.922495 0 0 1 0.186713,-0.01832 4.922495,4.922495 0 0 1 0.0026,0 4.922495,4.922495 0 0 1 0.0077,-5.08e-4 4.922495,4.922495 0 0 1 0.08445,-0.0061 4.922495,4.922495 0 0 1 0.0031,0 4.922495,4.922495 0 0 1 0.07529,-0.0035 4.922495,4.922495 0 0 1 0.04528,-0.0016 4.922495,4.922495 0 0 1 0.0697,-0.0021 4.922495,4.922495 0 0 1 0.0753,-9.84e-4 z m 118.164713,9.8449 a 4.922495,4.922495 0 0 1 2.55293,0.716833 4.922495,4.922495 0 0 1 1.64735,6.763885 4.922495,4.922495 0 0 1 -3.07797,2.23343 4.922495,4.922495 0 0 1 -0.089,0.01984 4.922495,4.922495 0 0 1 -0.004,9.84e-4 4.922495,4.922495 0 0 1 -0.0895,0.01832 4.922495,4.922495 0 0 1 -0.004,5.08e-4 4.922495,4.922495 0 0 1 -0.0901,0.01679 4.922495,4.922495 0 0 1 -0.004,5.08e-4 4.922495,4.922495 0 0 1 -0.0901,0.01526 4.922495,4.922495 0 0 1 -0.004,5.08e-4 4.922495,4.922495 0 0 1 -0.0906,0.01323 4.922495,4.922495 0 0 1 -0.0981,0.01221 4.922495,4.922495 0 0 1 -0.0911,0.0096 4.922495,4.922495 0 0 1 -0.0987,0.0087 4.922495,4.922495 0 0 1 -0.0453,0.0031 4.922495,4.922495 0 0 1 -0.33119,0.01119 4.922495,4.922495 0 0 1 -0.0992,-9.84e-4 4.922495,4.922495 0 0 1 -0.28134,-0.01373 4.922495,4.922495 0 0 1 -0.004,-5.11e-4 4.922495,4.922495 0 0 1 -0.0315,-0.0026 4.922495,4.922495 0 0 1 -0.15821,-0.01577 4.922495,4.922495 0 0 1 -0.0906,-0.01171 4.922495,4.922495 0 0 1 -0.004,-5.08e-4 4.922495,4.922495 0 0 1 -0.0901,-0.01323 4.922495,4.922495 0 0 1 -0.004,-5.11e-4 4.922495,4.922495 0 0 1 -0.0901,-0.01526 4.922495,4.922495 0 0 1 -0.004,-5.08e-4 4.922495,4.922495 0 0 1 -0.0901,-0.01679 4.922495,4.922495 0 0 1 -0.18976,-0.04121 4.922495,4.922495 0 0 1 -0.18062,-0.04629 4.922495,4.922495 0 0 1 -0.004,-9.85e-4 4.922495,4.922495 0 0 1 -0.0875,-0.02544 4.922495,4.922495 0 0 1 -0.27473,-0.09107 4.922495,4.922495 0 0 1 -0.0234,-0.0087 4.922495,4.922495 0 0 1 -0.15415,-0.06003 4.922495,4.922495 0 0 1 -0.0845,-0.03511 4.922495,4.922495 0 0 1 -0.002,-5.11e-4 4.922495,4.922495 0 0 1 -0.0855,-0.03816 4.922495,4.922495 0 0 1 -0.004,-0.0015 4.922495,4.922495 0 0 1 -0.0829,-0.03867 4.922495,4.922495 0 0 1 -0.004,-0.0015 4.922495,4.922495 0 0 1 -0.0819,-0.04019 4.922495,4.922495 0 0 1 -0.004,-0.0016 4.922495,4.922495 0 0 1 -0.0809,-0.04223 4.922495,4.922495 0 0 1 -0.004,-0.0016 4.922495,4.922495 0 0 1 -0.0803,-0.04325 4.922495,4.922495 0 0 1 -0.16839,-0.09717 h -5.2e-4 a 4.922495,4.922495 0 0 1 -0.0167,-0.01017 4.922495,4.922495 0 0 1 -0.96562,-0.768727 4.922495,4.922495 0 0 1 0,-5.07e-4 4.922495,4.922495 0 0 1 -0.13024,-0.138381 4.922495,4.922495 0 0 1 0,-5.11e-4 4.922495,4.922495 0 0 1 -0.30169,-0.36783 4.922495,4.922495 0 0 1 0,-5.08e-4 4.922495,4.922495 0 0 1 -0.1104,-0.15466 4.922495,4.922495 0 0 1 0,-5.08e-4 4.922495,4.922495 0 0 1 -0.15364,-0.240134 4.922495,4.922495 0 0 1 0,-5.08e-4 4.922495,4.922495 0 0 1 -0.18316,-0.333234 4.922495,4.922495 0 0 1 0,-5.08e-4 4.922495,4.922495 0 0 1 -0.0819,-0.171449 4.922495,4.922495 0 0 1 0,-5.11e-4 4.922495,4.922495 0 0 1 -0.10989,-0.263024 4.922495,4.922495 0 0 1 0,-5.08e-4 4.922495,4.922495 0 0 1 -0.0651,-0.178573 4.922495,4.922495 0 0 1 0,-5.08e-4 4.922495,4.922495 0 0 1 -0.0295,-0.09005 4.922495,4.922495 0 0 1 0,-5.08e-4 4.922495,4.922495 0 0 1 -0.028,-0.09056 4.922495,4.922495 0 0 1 0,-5.08e-4 4.922495,4.922495 0 0 1 -0.0946,-0.368337 4.922495,4.922495 0 0 1 0,-5.11e-4 4.922495,4.922495 0 0 1 -0.0519,-0.280322 4.922495,4.922495 0 0 1 0,-5.08e-4 4.922495,4.922495 0 0 1 -0.0254,-0.188241 4.922495,4.922495 0 0 1 0,-5.08e-4 4.922495,4.922495 0 0 1 -0.029,-0.379022 4.922495,4.922495 0 0 1 0,-5.08e-4 4.922495,4.922495 0 0 1 0.0896,-1.136048 4.922495,4.922495 0 0 1 0,-5.08e-4 4.922495,4.922495 0 0 1 0.0321,-0.150082 4.922495,4.922495 0 0 1 0.59219,-1.457074 4.922495,4.922495 0 0 1 4.21044,-2.363668 z M 14.747763,76.298666 a 4.922495,4.922495 0 0 1 0.01984,0 4.922495,4.922495 0 0 1 3.347601,1.314119 4.922495,4.922495 0 0 1 0.0035,0.0039 c 0.06145,0.0571 0.121427,0.11565 0.179592,0.175527 0.05857,0.06025 0.115763,0.121733 0.170941,0.184672 7.11e-4,8.17e-4 0.0013,0.002 0.0021,0.003 0.05584,0.06379 0.109494,0.129018 0.161783,0.195354 0.05229,0.06636 0.10294,0.133744 0.151608,0.202482 0.09641,0.136185 0.185792,0.277057 0.267607,0.421759 7.86e-4,9.85e-4 0.0018,0.003 0.0026,0.0039 a 4.922495,4.922495 0 0 1 0.0021,0.0039 c 0.08166,0.145046 0.155833,0.294306 0.222324,0.446687 0.06698,0.153493 0.125998,0.309881 0.177047,0.469586 v 5.02e-4 a 4.922495,4.922495 0 0 1 0,5.12e-4 c 0.05064,0.158534 0.09327,0.320356 0.127696,0.483822 2.55e-4,9.85e-4 7.63e-4,0.002 9.85e-4,0.0039 a 4.922495,4.922495 0 0 1 0.0016,0.0079 c 0.01642,0.07896 0.0307,0.158239 0.04324,0.238092 1.36e-4,8.56e-4 3.75e-4,0.002 5.11e-4,0.003 a 4.922495,4.922495 0 0 1 5.08e-4,0.0039 c 0.01208,0.07758 0.02214,0.155226 0.03053,0.233523 4.93e-4,0.0049 0.0016,0.0089 0.0021,0.01368 a 4.922495,4.922495 0 0 1 5.08e-4,0.0069 c 0.0078,0.0761 0.01354,0.152795 0.01781,0.229448 a 4.922495,4.922495 0 0 1 0.0021,0.03357 c 0.0039,0.07984 0.0061,0.159814 0.0061,0.240129 -1.6e-5,0.12705 -0.0051,0.253322 -0.01476,0.37852 a 4.922495,4.922495 0 0 1 0,0.002 c -0.0093,0.12007 -0.02335,0.239175 -0.04121,0.357147 a 4.922495,4.922495 0 0 1 -0.0031,0.02087 4.922495,4.922495 0 0 1 -5.08e-4,0.002 c -0.01764,0.112912 -0.03934,0.224633 -0.06461,0.335271 a 4.922495,4.922495 0 0 1 -0.0082,0.03662 c -0.02575,0.108895 -0.05508,0.216245 -0.08801,0.322551 a 4.922495,4.922495 0 0 1 -0.0087,0.02796 c -0.03575,0.113011 -0.07543,0.224584 -0.119048,0.334257 -0.04481,0.112647 -0.0937,0.223501 -0.146521,0.33221 -3.99e-4,8.17e-4 -6.21e-4,0.002 -9.85e-4,0.003 a 4.922495,4.922495 0 0 1 -9.84e-4,0.003 c -0.05294,0.108649 -0.11027,0.215211 -0.170942,0.319499 -0.06113,0.105066 -0.125667,0.207582 -0.194343,0.307794 -0.06868,0.100212 -0.141303,0.19812 -0.217239,0.293046 -0.0741,0.09264 -0.151731,0.182418 -0.232499,0.269634 -0.002,0.002 -0.0036,0.0049 -0.0056,0.0069 a 4.922495,4.922495 0 0 1 -0.0056,0.0059 c -0.07994,0.08575 -0.163171,0.168743 -0.249289,0.248783 -0.0014,9.84e-4 -0.0027,0.003 -0.004,0.0039 a 4.922495,4.922495 0 0 1 -0.004,0.0039 c -0.08588,0.07945 -0.174868,0.156033 -0.266588,0.229457 a 4.922495,4.922495 0 0 1 -0.01476,0.01172 c -0.0938,0.07453 -0.190396,0.145863 -0.289989,0.213675 -0.102015,0.06951 -0.207122,0.135369 -0.314921,0.197402 -0.107794,0.06202 -0.218422,0.120345 -0.331705,0.174503 -0.113286,0.05415 -0.229,0.104219 -0.34748,0.150077 a 4.922495,4.922495 0 0 1 -1.776569,0.332219 4.922495,4.922495 0 0 1 -4.922704,-4.9222 4.922495,4.922495 0 0 1 4.902672,-4.92537 z m 103.268407,0 a 24.612475,24.612475 0 0 1 0.12362,0 24.612475,24.612475 0 0 1 14.20441,4.512648 24.612475,24.612475 0 0 1 0.15314,0.108876 24.612474,24.612474 0 0 1 0.0204,0.01477 24.612475,24.612475 0 0 1 0.15213,0.110392 24.612474,24.612474 0 0 1 0.0199,0.01477 24.612475,24.612475 0 0 1 0.15162,0.111928 24.612474,24.612474 0 0 1 0.0199,0.01477 24.612475,24.612475 0 0 1 0.0214,0.01624 24.612474,24.612474 0 0 1 0.31747,0.241153 24.612474,24.612474 0 0 1 0.16788,0.131254 24.612475,24.612475 0 0 1 0.14754,0.116505 24.612474,24.612474 0 0 1 0.0193,0.01575 24.612474,24.612474 0 0 1 0.16534,0.133804 24.612475,24.612475 0 0 1 0.1455,0.119557 24.612474,24.612474 0 0 1 0.0188,0.01575 24.612474,24.612474 0 0 1 0.16331,0.136855 24.612475,24.612475 0 0 1 0.14347,0.122098 24.612474,24.612474 0 0 1 0.0188,0.01624 24.612475,24.612475 0 0 1 0.14195,0.123122 24.612474,24.612474 0 0 1 0.0188,0.01624 24.612475,24.612475 0 0 1 0.0443,0.03918 24.612474,24.612474 0 0 1 0.11498,0.101758 24.612475,24.612475 0 0 1 0.14042,0.125661 24.612474,24.612474 0 0 1 0.0183,0.01674 24.612475,24.612475 0 0 1 0.13889,0.126675 24.612474,24.612474 0 0 1 0.0183,0.01684 24.612475,24.612475 0 0 1 0.13788,0.128202 24.612474,24.612474 0 0 1 0.0178,0.01674 24.612475,24.612475 0 0 1 0.13684,0.129225 24.612474,24.612474 0 0 1 0.0178,0.01733 24.612474,24.612474 0 0 1 0.15314,0.147537 24.612475,24.612475 0 0 1 0.13482,0.131775 24.612474,24.612474 0 0 1 0.0346,0.03456 24.612475,24.612475 0 0 1 0.116,0.115482 24.612475,24.612475 0 0 1 0.0789,0.07935 24.612474,24.612474 0 0 1 0.088,0.08959 24.612474,24.612474 0 0 1 0.12413,0.128201 24.612475,24.612475 0 0 1 0.007,0.0069 24.612474,24.612474 0 0 1 0.0173,0.01782 24.612475,24.612475 0 0 1 0.12973,0.136353 24.612474,24.612474 0 0 1 0.0168,0.01782 24.612475,24.612475 0 0 1 0.12872,0.137368 24.612474,24.612474 0 0 1 0.0167,0.01831 24.612475,24.612475 0 0 1 0.12769,0.138381 24.612474,24.612474 0 0 1 0.0167,0.01831 24.612475,24.612475 0 0 1 0.12617,0.139395 24.612474,24.612474 0 0 1 0.0163,0.01831 24.612475,24.612475 0 0 1 0.12515,0.140419 24.612474,24.612474 0 0 1 0.0162,0.0188 24.612474,24.612474 0 0 1 0.13991,0.160257 24.612474,24.612474 0 0 1 0.0901,0.10481 24.612475,24.612475 0 0 1 0.0326,0.0382 24.612474,24.612474 0 0 1 0.0162,0.0188 24.612475,24.612475 0 0 1 0.12109,0.143471 24.612474,24.612474 0 0 1 0.0162,0.0193 24.612475,24.612475 0 0 1 0.12006,0.144485 24.612474,24.612474 0 0 1 0.0157,0.0193 24.612475,24.612475 0 0 1 0.11855,0.146011 24.612474,24.612474 0 0 1 0.0158,0.0193 24.612475,24.612475 0 0 1 0.0341,0.04224 24.612474,24.612474 0 0 1 0.0987,0.124125 24.612475,24.612475 0 0 1 0.11649,0.147547 24.612474,24.612474 0 0 1 0.0153,0.01989 24.612474,24.612474 0 0 1 0.12973,0.168399 24.612475,24.612475 0 0 1 0.11397,0.150087 24.612474,24.612474 0 0 1 0.0148,0.01989 24.612475,24.612475 0 0 1 0.11244,0.150588 24.612474,24.612474 0 0 1 0.0148,0.01989 24.612475,24.612475 0 0 1 0.11091,0.152115 24.612474,24.612474 0 0 1 0.0148,0.01989 24.612475,24.612475 0 0 1 0.10989,0.152627 24.612474,24.612474 0 0 1 0.0657,0.09313 24.612475,24.612475 0 0 1 4.49636,13.590338 24.612474,24.612474 0 0 1 0.003,0.13483 24.612475,24.612475 0 0 1 0.002,0.13074 24.612475,24.612475 0 0 1 0.002,0.21266 24.612475,24.612475 0 0 1 5.1e-4,0.12364 24.612475,24.612475 0 0 1 -0.11142,2.33823 24.612474,24.612474 0 0 1 0,5e-4 24.612475,24.612475 0 0 1 -0.22029,1.68856 24.612474,24.612474 0 0 1 -0.0733,0.41921 24.612475,24.612475 0 0 1 -0.0397,0.2091 24.612474,24.612474 0 0 1 0,5e-4 24.612475,24.612475 0 0 1 -0.17552,0.83284 24.612474,24.612474 0 0 1 0,5e-4 24.612475,24.612475 0 0 1 -0.0483,0.20707 24.612474,24.612474 0 0 1 -0.10226,0.41362 24.612475,24.612475 0 0 1 -0.0534,0.20604 24.612474,24.612474 0 0 1 -0.088,0.32153 24.612475,24.612475 0 0 1 -7.70203,12.0656 24.612475,24.612475 0 0 1 -0.0352,0.03 24.612474,24.612474 0 0 1 -0.0336,0.0285 24.612475,24.612475 0 0 1 -0.12923,0.10888 24.612474,24.612474 0 0 1 -0.12821,0.10684 24.612475,24.612475 0 0 1 -0.0356,0.0295 24.612474,24.612474 0 0 1 -0.12922,0.10531 24.612475,24.612475 0 0 1 -0.0356,0.029 24.612474,24.612474 0 0 1 -0.13024,0.10429 24.612474,24.612474 0 0 1 -0.16687,0.13177 24.612474,24.612474 0 0 1 -0.1684,0.13075 24.612474,24.612474 0 0 1 -0.16942,0.12922 24.612474,24.612474 0 0 1 -0.34188,0.25336 24.612474,24.612474 0 0 1 -0.17247,0.12465 24.612474,24.612474 0 0 1 -0.17349,0.12312 24.612475,24.612475 0 0 1 -0.0382,0.027 24.612474,24.612474 0 0 1 -0.13686,0.0951 24.612475,24.612475 0 0 1 -0.0381,0.0265 24.612474,24.612474 0 0 1 -0.13737,0.0936 24.612475,24.612475 0 0 1 -0.0387,0.026 24.612474,24.612474 0 0 1 -0.13838,0.0927 24.612474,24.612474 0 0 1 -0.17806,0.11701 24.612474,24.612474 0 0 1 -0.13076,0.085 24.612474,24.612474 0 0 1 -0.0478,0.0305 24.612475,24.612475 0 0 1 -0.0392,0.0249 24.612474,24.612474 0 0 1 -0.14093,0.089 24.612474,24.612474 0 0 1 -0.1806,0.11243 24.612474,24.612474 0 0 1 -0.15009,0.0916 24.612474,24.612474 0 0 1 -0.0315,0.0193 24.612475,24.612475 0 0 1 -0.0397,0.0239 24.612474,24.612474 0 0 1 -0.14347,0.0854 24.612475,24.612475 0 0 1 -0.0397,0.0234 24.612474,24.612474 0 0 1 -0.14397,0.084 24.612474,24.612474 0 0 1 -0.15314,0.088 24.612474,24.612474 0 0 1 -0.031,0.0183 24.612475,24.612475 0 0 1 -0.0402,0.0229 24.612474,24.612474 0 0 1 -0.1455,0.0814 24.612474,24.612474 0 0 1 -0.18671,0.10277 24.612474,24.612474 0 0 1 -0.5642,0.29914 24.612474,24.612474 0 0 1 -0.57185,0.28389 24.612474,24.612474 0 0 1 -0.19231,0.0916 24.612474,24.612474 0 0 1 -0.35765,0.16484 24.612474,24.612474 0 0 1 -0.0295,0.0132 24.612475,24.612475 0 0 1 -0.0422,0.0188 24.612474,24.612474 0 0 1 -0.15212,0.0671 24.612475,24.612475 0 0 1 -0.0422,0.0188 24.612474,24.612474 0 0 1 -0.0427,0.0183 24.612475,24.612475 0 0 1 -9.80419,2.03755 24.612475,24.612475 0 0 1 -13.06938,-3.75664 24.612474,24.612474 0 0 1 -0.0402,-0.0254 24.612475,24.612475 0 0 1 -0.0315,-0.0199 24.612475,24.612475 0 0 1 -0.16026,-0.10226 24.612475,24.612475 0 0 1 -0.12668,-0.0819 24.612474,24.612474 0 0 1 -0.003,-0.002 24.612475,24.612475 0 0 1 -0.0987,-0.0646 24.612475,24.612475 0 0 1 -0.12822,-0.085 24.612475,24.612475 0 0 1 -0.17704,-0.11904 24.612475,24.612475 0 0 1 -0.12465,-0.085 24.612474,24.612474 0 0 1 -0.0239,-0.0167 24.612475,24.612475 0 0 1 -0.1455,-0.10125 24.612474,24.612474 0 0 1 -0.007,-0.005 24.612475,24.612475 0 0 1 -0.12616,-0.089 24.612474,24.612474 0 0 1 -0.0687,-0.0488 24.612475,24.612475 0 0 1 -0.14958,-0.10837 24.612474,24.612474 0 0 1 -0.117,-0.0855 24.612475,24.612475 0 0 1 -0.1043,-0.0774 24.612475,24.612475 0 0 1 -0.12108,-0.0906 24.612474,24.612474 0 0 1 -0.0158,-0.0117 24.612475,24.612475 0 0 1 -0.0763,-0.058 24.612475,24.612475 0 0 1 -0.12617,-0.0972 24.612475,24.612475 0 0 1 -0.16738,-0.13024 24.612475,24.612475 0 0 1 -0.003,-0.003 24.612474,24.612474 0 0 1 -0.14805,-0.11752 24.612475,24.612475 0 0 1 -0.0742,-0.0596 24.612474,24.612474 0 0 1 -0.0758,-0.061 24.612475,24.612475 0 0 1 -0.14856,-0.12159 24.612474,24.612474 0 0 1 -0.15822,-0.13126 24.612474,24.612474 0 0 1 -0.0112,-0.0101 24.612475,24.612475 0 0 1 -0.0829,-0.0697 24.612474,24.612474 0 0 1 -0.11091,-0.0941 24.612475,24.612475 0 0 1 -0.0473,-0.0407 24.612474,24.612474 0 0 1 -0.0941,-0.0814 24.612475,24.612475 0 0 1 -0.14296,-0.12566 24.612474,24.612474 0 0 1 -0.13634,-0.12159 24.612474,24.612474 0 0 1 -0.0336,-0.03 24.612475,24.612475 0 0 1 -0.14652,-0.13331 24.612474,24.612474 0 0 1 -0.12617,-0.11599 24.612474,24.612474 0 0 1 -0.0458,-0.0427 24.612475,24.612475 0 0 1 -0.13991,-0.13176 24.612474,24.612474 0 0 1 -0.15364,-0.14703 24.612474,24.612474 0 0 1 -0.15262,-0.14856 24.612474,24.612474 0 0 1 -0.0443,-0.0432 24.612475,24.612475 0 0 1 -0.0631,-0.0631 24.612474,24.612474 0 0 1 -0.0615,-0.061 24.612475,24.612475 0 0 1 -0.13228,-0.1333 24.612474,24.612474 0 0 1 -0.12007,-0.12312 24.612474,24.612474 0 0 1 -0.0437,-0.0448 24.612475,24.612475 0 0 1 -0.13228,-0.13838 24.612474,24.612474 0 0 1 -0.0427,-0.0448 24.612475,24.612475 0 0 1 -0.10327,-0.1099 24.612474,24.612474 0 0 1 -0.1104,-0.11904 24.612474,24.612474 0 0 1 -0.0606,-0.0657 24.612475,24.612475 0 0 1 -0.117,-0.12922 24.612474,24.612474 0 0 1 -0.14195,-0.15873 24.612474,24.612474 0 0 1 -0.0413,-0.0463 24.612475,24.612475 0 0 1 -0.054,-0.0615 24.612474,24.612474 0 0 1 -0.0737,-0.0845 24.612475,24.612475 0 0 1 -0.0249,-0.0284 24.612475,24.612475 0 0 1 -6.005327,-16.11019 24.612475,24.612475 0 0 1 0.004,-0.44771 24.612475,24.612475 0 0 1 0.004,-0.19638 24.612474,24.612474 0 0 1 0.0066,-0.20757 24.612475,24.612475 0 0 1 0.0061,-0.15923 24.612475,24.612475 0 0 1 0.0031,-0.0713 24.612474,24.612474 0 0 1 0.0092,-0.19485 24.612475,24.612475 0 0 1 9.85e-4,-0.0219 24.612474,24.612474 0 0 1 0.0045,-0.0779 24.612474,24.612474 0 0 1 0.0077,-0.13482 24.612474,24.612474 0 0 1 0.01272,-0.19078 24.612475,24.612475 0 0 1 0.0015,-0.0188 24.612474,24.612474 0 0 1 5.08e-4,-0.008 24.612474,24.612474 0 0 1 0.01526,-0.20758 24.612474,24.612474 0 0 1 0.01577,-0.19027 24.612475,24.612475 0 0 1 0.0021,-0.0219 24.612474,24.612474 0 0 1 0.0173,-0.19027 24.612475,24.612475 0 0 1 9.84e-4,-0.0117 24.612474,24.612474 0 0 1 0.004,-0.0422 24.612474,24.612474 0 0 1 0.01831,-0.17959 24.612474,24.612474 0 0 1 0.07478,-0.63442 24.612474,24.612474 0 0 1 0.05952,-0.42176 24.612474,24.612474 0 0 1 0.03205,-0.21011 24.612474,24.612474 0 0 1 0.03052,-0.18875 24.612475,24.612475 0 0 1 0.0021,-0.0132 24.612474,24.612474 0 0 1 0.0056,-0.0331 24.612474,24.612474 0 0 1 0.03206,-0.18519 24.612474,24.612474 0 0 1 0.03357,-0.18824 24.612475,24.612475 0 0 1 0.004,-0.0214 24.612474,24.612474 0 0 1 0.0809,-0.41769 24.612474,24.612474 0 0 1 0.03866,-0.18722 24.612475,24.612475 0 0 1 0.004,-0.0188 24.612474,24.612474 0 0 1 0.0021,-0.0101 24.612474,24.612474 0 0 1 0.09005,-0.40853 24.612474,24.612474 0 0 1 0.09921,-0.41413 24.612474,24.612474 0 0 1 0.05189,-0.20604 24.612474,24.612474 0 0 1 0.109892,-0.41158 24.612474,24.612474 0 0 1 0.177555,-0.61356 24.612474,24.612474 0 0 1 0.127697,-0.4065 24.612474,24.612474 0 0 1 0.06614,-0.20197 24.612474,24.612474 0 0 1 0.308815,-0.87353 24.612475,24.612475 0 0 1 3.763251,-6.656542 24.612474,24.612474 0 0 1 0.10735,-0.134817 24.612474,24.612474 0 0 1 0.0453,-0.05592 24.612474,24.612474 0 0 1 0.11498,-0.140409 24.612474,24.612474 0 0 1 0.41158,-0.48841 24.612474,24.612474 0 0 1 0.28185,-0.3195 24.612474,24.612474 0 0 1 0.14296,-0.157706 24.612474,24.612474 0 0 1 0.14397,-0.156703 24.612474,24.612474 0 0 1 0.14551,-0.155167 24.612474,24.612474 0 0 1 0.29507,-0.307282 24.612474,24.612474 0 0 1 0.14958,-0.151613 24.612474,24.612474 0 0 1 0.1511,-0.150077 24.612474,24.612474 0 0 1 0.15211,-0.149073 24.612474,24.612474 0 0 1 0.15314,-0.147537 24.612474,24.612474 0 0 1 0.15467,-0.146523 24.612474,24.612474 0 0 1 0.15618,-0.144987 24.612474,24.612474 0 0 1 0.1572,-0.143471 24.612474,24.612474 0 0 1 0.15822,-0.141945 24.612474,24.612474 0 0 1 0.15976,-0.140921 24.612474,24.612474 0 0 1 0.16077,-0.139405 24.612474,24.612474 0 0 1 0.16229,-0.138381 24.612474,24.612474 0 0 1 0.14296,-0.119548 24.612474,24.612474 0 0 1 0.0407,-0.03406 24.612474,24.612474 0 0 1 0.14397,-0.118031 24.612474,24.612474 0 0 1 0.16535,-0.133804 24.612474,24.612474 0 0 1 0.14601,-0.116495 24.612474,24.612474 0 0 1 0.0652,-0.0509 24.612475,24.612475 0 0 1 0.0742,-0.05799 24.612474,24.612474 0 0 1 0.0987,-0.0763 24.612475,24.612475 0 0 1 0.0535,-0.04066 24.612475,24.612475 0 0 1 0.11853,-0.09008 24.612475,24.612475 0 0 1 0.11803,-0.08851 24.612474,24.612474 0 0 1 0.15823,-0.117529 24.612474,24.612474 0 0 1 0.027,-0.0193 24.612474,24.612474 0 0 1 0.13228,-0.09619 24.612474,24.612474 0 0 1 0.0676,-0.04834 24.612475,24.612475 0 0 1 0.085,-0.06055 24.612474,24.612474 0 0 1 0.0687,-0.04883 24.612474,24.612474 0 0 1 0.15262,-0.106326 24.612474,24.612474 0 0 1 0.17552,-0.120572 24.612474,24.612474 0 0 1 0.17654,-0.119055 24.612474,24.612474 0 0 1 0.17756,-0.11752 24.612474,24.612474 0 0 1 0.17857,-0.115994 24.612474,24.612474 0 0 1 0.15568,-0.09921 24.612474,24.612474 0 0 1 0.0626,-0.03968 24.612475,24.612475 0 0 1 0.12821,-0.07984 24.612474,24.612474 0 0 1 0.0188,-0.01171 24.612474,24.612474 0 0 1 0.14957,-0.09205 24.612474,24.612474 0 0 1 0.0596,-0.03613 24.612475,24.612475 0 0 1 0.14653,-0.08752 24.612474,24.612474 0 0 1 0.006,-0.0039 24.612475,24.612475 0 0 1 0.15466,-0.09107 24.612474,24.612474 0 0 1 0.0463,-0.02698 24.612474,24.612474 0 0 1 0.16382,-0.09461 24.612474,24.612474 0 0 1 0.0651,-0.03712 24.612475,24.612475 0 0 1 12.03254,-3.211258 z m 78.84465,29.534694 a 4.922495,4.922495 0 0 1 0.0437,0 4.922495,4.922495 0 0 1 2.55343,0.71734 4.922495,4.922495 0 0 1 1.64684,6.76337 4.922495,4.922495 0 0 1 -6.74709,1.65752 4.922495,4.922495 0 0 1 -0.0168,-0.0106 4.922495,4.922495 0 0 1 -1.17624,-0.99817 4.922495,4.922495 0 0 1 -0.0448,-0.0535 4.922495,4.922495 0 0 1 -0.0657,-0.0803 4.922495,4.922495 0 0 1 -0.0535,-0.0682 4.922495,4.922495 0 0 1 -0.27523,-0.39581 4.922495,4.922495 0 0 1 -0.0432,-0.0702 4.922495,4.922495 0 0 1 -0.005,-0.008 4.922495,4.922495 0 0 1 -0.0305,-0.0524 4.922495,4.922495 0 0 1 -0.0223,-0.0382 4.922495,4.922495 0 0 1 -0.007,-0.0117 4.922495,4.922495 0 0 1 -0.0803,-0.14755 4.922495,4.922495 0 0 1 -0.0417,-0.0819 4.922495,4.922495 0 0 1 -0.19435,-0.44262 4.922495,4.922495 0 0 1 -0.0305,-0.0824 4.922495,4.922495 0 0 1 -0.062,-0.18213 4.922495,4.922495 0 0 1 -0.0275,-0.089 4.922495,4.922495 0 0 1 -0.03,-0.10481 4.922495,4.922495 0 0 1 -0.01,-0.0361 4.922495,4.922495 0 0 1 -0.0148,-0.057 4.922495,4.922495 0 0 1 -0.0188,-0.0779 4.922495,4.922495 0 0 1 -0.0901,-0.49349 4.922495,4.922495 0 0 1 -0.007,-0.059 4.922495,4.922495 0 0 1 -0.0295,-0.77839 4.922495,4.922495 0 0 1 0.003,-0.0514 4.922495,4.922495 0 0 1 0.003,-0.0478 4.922495,4.922495 0 0 1 0.004,-0.0565 4.922495,4.922495 0 0 1 0.003,-0.0346 4.922495,4.922495 0 0 1 0.008,-0.087 4.922495,4.922495 0 0 1 0.21368,-1.03023 4.922495,4.922495 0 0 1 0.0234,-0.0697 4.922495,4.922495 0 0 1 0.22385,-0.54895 4.922495,4.922495 0 0 1 0.028,-0.057 4.922495,4.922495 0 0 1 0.0662,-0.12922 4.922495,4.922495 0 0 1 0.0336,-0.0615 4.922495,4.922495 0 0 1 0.1048,-0.18162 4.922495,4.922495 0 0 1 0.21063,-0.31746 4.922495,4.922495 0 0 1 0.11396,-0.15211 4.922495,4.922495 0 0 1 0.0596,-0.0743 4.922495,4.922495 0 0 1 0,-5.1e-4 4.922495,4.922495 0 0 1 0.0605,-0.0733 4.922495,4.922495 0 0 1 0.12566,-0.14296 4.922495,4.922495 0 0 1 0.55505,-0.52045 4.922495,4.922495 0 0 1 0.0753,-0.0591 4.922495,4.922495 0 0 1 0.15262,-0.11294 4.922495,4.922495 0 0 1 0.0289,-0.0199 4.922495,4.922495 0 0 1 0.0132,-0.01 4.922495,4.922495 0 0 1 2.77118,-0.88117 z m -137.810764,59.0699 a 4.922495,4.922495 0 0 1 0.01984,0 4.922495,4.922495 0 0 1 0.09514,9.8e-4 4.922495,4.922495 0 0 1 0.569294,0.0443 4.922495,4.922495 0 0 1 0.09412,0.0137 4.922495,4.922495 0 0 1 0.373935,0.0733 4.922495,4.922495 0 0 1 0.635943,0.19638 4.922495,4.922495 0 0 1 5.08e-4,5.1e-4 4.922495,4.922495 0 0 1 0.08801,0.0345 4.922495,4.922495 0 0 1 5.08e-4,5.1e-4 4.922495,4.922495 0 0 1 0.0875,0.0366 4.922495,4.922495 0 0 1 0.343917,0.16382 4.922495,4.922495 0 0 1 0.08395,0.0453 4.922495,4.922495 0 0 1 0.404969,0.24929 4.922495,4.922495 0 0 1 0.230971,0.16789 4.922495,4.922495 0 0 1 5.11e-4,0 4.922495,4.922495 0 0 1 0.07428,0.059 4.922495,4.922495 0 0 1 5.1e-4,0 4.922495,4.922495 0 0 1 0.03307,0.027 4.922495,4.922495 0 0 1 0.112943,0.0951 4.922495,4.922495 0 0 1 0.140926,0.12769 4.922495,4.922495 0 0 1 0.136346,0.1333 4.922495,4.922495 0 0 1 0.376477,0.42887 4.922495,4.922495 0 0 1 0,5.2e-4 4.922495,4.922495 0 0 1 0.221817,0.30881 4.922495,4.922495 0 0 1 0,5e-4 4.922495,4.922495 0 0 1 0.05189,0.0794 4.922495,4.922495 0 0 1 0,5.1e-4 4.922495,4.922495 0 0 1 0.05037,0.0803 4.922495,4.922495 0 0 1 0,5.1e-4 4.922495,4.922495 0 0 1 0.04833,0.0814 4.922495,4.922495 0 0 1 0,5.1e-4 4.922495,4.922495 0 0 1 0.294568,0.59678 4.922495,4.922495 0 0 1 5.08e-4,5e-4 4.922495,4.922495 0 0 1 0.100734,0.26659 4.922495,4.922495 0 0 1 0,5e-4 4.922495,4.922495 0 0 1 0.133801,0.45636 4.922495,4.922495 0 0 1 0,5.1e-4 4.922495,4.922495 0 0 1 0.08853,0.46704 4.922495,4.922495 0 0 1 0.0016,0.0112 4.922495,4.922495 0 0 1 0.03002,0.2727 4.922495,4.922495 0 0 1 5.08e-4,0.007 4.922495,4.922495 0 0 1 0.01425,0.27574 4.922495,4.922495 0 0 1 0.0016,0.11753 4.922495,4.922495 0 0 1 -4.922195,4.92219 4.922495,4.922495 0 0 1 -4.922702,-4.92219 4.922495,4.922495 0 0 1 4.307109,-4.88353 4.922495,4.922495 0 0 1 0.258448,-0.026 4.922495,4.922495 0 0 1 0.143976,-0.009 4.922495,4.922495 0 0 1 0.0031,0 4.922495,4.922495 0 0 1 0.190274,-0.005 z m 108.319314,9.8454 a 4.922495,4.922495 0 0 1 5e-4,0 4.922495,4.922495 0 0 1 0.75856,0.0596 4.922495,4.922495 0 0 1 0.0936,0.0157 4.922495,4.922495 0 0 1 5.1e-4,0 4.922495,4.922495 0 0 1 0.0931,0.0173 4.922495,4.922495 0 0 1 0.40649,0.0982 4.922495,4.922495 0 0 1 1.20067,0.52605 4.922495,4.922495 0 0 1 1.64734,6.76389 4.922495,4.922495 0 0 1 -6.74761,1.65701 4.922495,4.922495 0 0 1 -0.0167,-0.0101 4.922495,4.922495 0 0 1 -2.28634,-5.07432 4.922495,4.922495 0 0 1 0.0346,-0.17552 4.922495,4.922495 0 0 1 0.003,-0.0101 4.922495,4.922495 0 0 1 0.005,-0.0209 4.922495,4.922495 0 0 1 0.0153,-0.0666 4.922495,4.922495 0 0 1 0.009,-0.0336 4.922495,4.922495 0 0 1 0.0163,-0.0652 4.922495,4.922495 0 0 1 0.0763,-0.26353 4.922495,4.922495 0 0 1 0.004,-0.0107 4.922495,4.922495 0 0 1 0.0265,-0.0794 4.922495,4.922495 0 0 1 0.004,-0.0106 4.922495,4.922495 0 0 1 0.0112,-0.0321 4.922495,4.922495 0 0 1 0.0209,-0.058 4.922495,4.922495 0 0 1 0.0295,-0.0784 4.922495,4.922495 0 0 1 9.8e-4,-0.002 4.922495,4.922495 0 0 1 0.0148,-0.0376 4.922495,4.922495 0 0 1 0.0239,-0.0596 4.922495,4.922495 0 0 1 0.1109,-0.2503 4.922495,4.922495 0 0 1 0.005,-0.0101 4.922495,4.922495 0 0 1 0.0371,-0.0753 4.922495,4.922495 0 0 1 0.002,-0.004 4.922495,4.922495 0 0 1 0.0865,-0.16484 4.922495,4.922495 0 0 1 0.006,-0.01 4.922495,4.922495 0 0 1 0.0412,-0.0732 4.922495,4.922495 0 0 1 0.003,-0.006 4.922495,4.922495 0 0 1 0.0127,-0.0214 4.922495,4.922495 0 0 1 0.0387,-0.0646 4.922495,4.922495 0 0 1 0.004,-0.007 4.922495,4.922495 0 0 1 0.70157,-0.89897 4.922495,4.922495 0 0 1 0.0671,-0.0671 4.922495,4.922495 0 0 1 0.0687,-0.0657 4.922495,4.922495 0 0 1 0.0702,-0.0646 4.922495,4.922495 0 0 1 0.0713,-0.0631 4.922495,4.922495 0 0 1 0.0727,-0.0615 4.922495,4.922495 0 0 1 0.37952,-0.28693 4.922495,4.922495 0 0 1 0.0794,-0.053 4.922495,4.922495 0 0 1 0.9305,-0.47619 4.922495,4.922495 0 0 1 0.0895,-0.0331 4.922495,4.922495 0 0 1 0.0896,-0.0315 4.922495,4.922495 0 0 1 0.0906,-0.03 4.922495,4.922495 0 0 1 0.55302,-0.14144 4.922495,4.922495 0 0 1 0.18773,-0.0326 4.922495,4.922495 0 0 1 0.0941,-0.0137 4.922495,4.922495 0 0 1 5.2e-4,0 4.922495,4.922495 0 0 1 0.56878,-0.0438 4.922495,4.922495 0 0 1 0.0951,-5e-4 z"
       style="fill:#000000;stroke-width:0.16573"
       id="path128" />
    <path
       transform="scale(0.26458333)"
       id="path1060"
       d="m 113.38672,377.95312 a 56.692913,56.692913 0 0 0 -56.693361,56.69336 56.692913,56.692913 0 0 0 56.693361,56.69141 56.692913,56.692913 0 0 0 56.6914,-56.69141 56.692913,56.692913 0 0 0 -56.6914,-56.69336 z"
       style="fill:none;stroke-width:0.935384" />
  </g>
</svg>
