<?xml version="1.0" encoding="UTF-8" standalone="no"?>
<svg
   xmlns:dc="http://purl.org/dc/elements/1.1/"
   xmlns:cc="http://creativecommons.org/ns#"
   xmlns:rdf="http://www.w3.org/1999/02/22-rdf-syntax-ns#"
   xmlns:svg="http://www.w3.org/2000/svg"
   xmlns="http://www.w3.org/2000/svg"
   xmlns:sodipodi="http://sodipodi.sourceforge.net/DTD/sodipodi-0.dtd"
   xmlns:inkscape="http://www.inkscape.org/namespaces/inkscape"
   sodipodi:docname="logo_akeneo.svg"
   inkscape:version="1.0 (4035a4f, 2020-05-01)"
   width="800"
   height="800"
   id="svg2"
   version="1.1"
   enable-background="new">
  <sodipodi:namedview
     inkscape:document-rotation="0"
     inkscape:current-layer="svg2"
     inkscape:window-maximized="0"
     inkscape:window-y="23"
     inkscape:window-x="0"
     inkscape:cy="437.51559"
     inkscape:cx="312.57821"
     inkscape:zoom="0.85750902"
     showgrid="false"
     id="namedview90"
     inkscape:window-height="1005"
     inkscape:window-width="1680"
     inkscape:pageshadow="2"
     inkscape:pageopacity="0"
     guidetolerance="10"
     gridtolerance="10"
     objecttolerance="10"
     borderopacity="1"
     bordercolor="#666666"
     pagecolor="#ffffff" />
  <defs
     id="defs4">
    <clipPath
       clipPathUnits="userSpaceOnUse"
       id="clipPath3892">
      <path
         d="m 0,595.28 841.89,0 L 841.89,0 0,0 0,595.28 z"
         id="path3894" />
    </clipPath>
    <radialGradient
       gradientTransform="translate(455,634.36192)"
       gradientUnits="userSpaceOnUse"
       r="156.464"
       cy="-77.013199"
       cx="74.670898"
       id="SVGID_1_">
      <stop
         id="stop4565"
         style="stop-color:#FFFFFF"
         offset="0" />
      <stop
         id="stop4567"
         style="stop-color:#7ABB2D"
         offset="1" />
    </radialGradient>
    <linearGradient
       gradientTransform="translate(71.56129,847.15776)"
       id="SVGID_1_-5"
       gradientUnits="userSpaceOnUse"
       x1="433.99609"
       y1="87.997597"
       x2="433.99609"
       y2="178.67191">
      <stop
         offset="0"
         style="stop-color:#F28F28"
         id="stop5292" />
      <stop
         offset="1"
         style="stop-color:#E77926"
         id="stop5294" />
    </linearGradient>
  </defs>
  <metadata
     id="metadata7">
    <rdf:RDF>
      <cc:Work
         rdf:about="">
        <dc:format>image/svg+xml</dc:format>
        <dc:type
           rdf:resource="http://purl.org/dc/dcmitype/StillImage" />
        <dc:title></dc:title>
      </cc:Work>
    </rdf:RDF>
  </metadata>
  <g
     transform="matrix(8.7221623,0,0,8.7221623,-1146.5268,-950.5462)"
     id="layer4"
     style="display:inline">
    <g
       style="display:inline"
       id="g6206"
       transform="matrix(0.2,0,0,0.2,47.945605,42.744868)">
      <path
         transform="matrix(0.57325235,0,0,0.57325235,417.52115,331.1785)"
         sodipodi:nodetypes="cccccsccccccccccccccccc"
         d="M 521.45703,8.2617188 C 581.44804,236.34965 490.80182,349.44461 431.3418,459.70117 c -0.10146,0.18241 -0.19751,0.35108 -0.29883,0.53321 C 264.14314,449.91253 115.08523,356.50466 14.529297,282.79492 c -0.498991,-0.86138 -0.981285,-1.67107 -1.482422,-2.53906 0,22.61397 11.76454,415.45038 237.564455,414.30273 158.07513,-0.80342 254.48961,28.70562 311.14844,59.51563 13.96526,10.26541 29.81605,22.12621 49.16211,36.13281 -0.0394,-0.13944 -0.076,-0.27665 -0.11524,-0.41601 0.43878,0.39233 0.87519,0.77577 1.31445,1.16992 0.0103,-0.35181 0.0162,-0.70076 0.0234,-1.05078 0.20853,0.20056 0.41397,0.40018 0.61914,0.59961 0.16747,0.53248 0.33357,1.06324 0.50586,1.59961 -0.0189,-0.38966 -0.0307,-0.76768 -0.0488,-1.15626 0.3911,0.38314 0.8166,0.77754 1.19532,1.15626 -0.40148,-0.40148 -0.79467,-0.78939 -1.19532,-1.18946 C 604.09156,595.20589 687.76823,536.74664 741.66405,414.21875 818.21623,255.97289 588.92954,59.723997 521.45703,8.2617188 Z M 612.17188,788.63477 c 0.19147,0.60407 0.3828,1.20794 0.57226,1.81054 -0.20065,-0.20025 -0.39916,-0.3958 -0.59961,-0.5957 0.008,-0.40461 0.019,-0.81012 0.0273,-1.21484 z"
         style="fill:#631b8b;fill-opacity:1;stroke:none;stroke-width:1.74443"
         id="path6198" />
    </g>
  </g>
  <style
     type="text/css"
     id="style4540"><![CDATA[
	.st0{fill:#7ABB2D;}
	.st1{fill:#EA2479;}
	.st2{fill:url(#SVGID_1_);}
	.st3{fill:#FFFFFF;}
	.st4{fill:#0A262C;}
]]></style>
</svg>
