<?xml version="1.0" encoding="UTF-8" standalone="no"?>
<svg
   xmlns:dc="http://purl.org/dc/elements/1.1/"
   xmlns:cc="http://creativecommons.org/ns#"
   xmlns:rdf="http://www.w3.org/1999/02/22-rdf-syntax-ns#"
   xmlns:svg="http://www.w3.org/2000/svg"
   xmlns="http://www.w3.org/2000/svg"
   xmlns:xlink="http://www.w3.org/1999/xlink"
   xmlns:sodipodi="http://sodipodi.sourceforge.net/DTD/sodipodi-0.dtd"
   xmlns:inkscape="http://www.inkscape.org/namespaces/inkscape"
   sodipodi:docname="logo.svg"
   inkscape:version="1.0 (4035a4f, 2020-05-01)"
   id="svg8"
   version="1.1"
   viewBox="0 0 210 297"
   height="297mm"
   width="210mm">
  <defs
     id="defs2">
    <linearGradient
       id="linearGradient2732"
       inkscape:collect="always">
      <stop
         id="stop2728"
         offset="0"
         style="stop-color:#22014f;stop-opacity:1;" />
      <stop
         id="stop2730"
         offset="1"
         style="stop-color:#fe8507;stop-opacity:1" />
    </linearGradient>
    <linearGradient
       gradientUnits="userSpaceOnUse"
       y2="75"
       x2="400"
       y1="715"
       x1="400.34766"
       id="linearGradient2743"
       xlink:href="#linearGradient2732"
       inkscape:collect="always" />
  </defs>
  <sodipodi:namedview
     inkscape:window-maximized="1"
     inkscape:window-y="23"
     inkscape:window-x="0"
     inkscape:window-height="1005"
     inkscape:window-width="1680"
     inkscape:snap-center="true"
     inkscape:guide-bbox="true"
     showguides="true"
     showgrid="false"
     inkscape:document-rotation="0"
     inkscape:current-layer="layer2"
     inkscape:document-units="mm"
     inkscape:cy="751.09563"
     inkscape:cx="-186.16129"
     inkscape:zoom="0.43044991"
     inkscape:pageshadow="2"
     inkscape:pageopacity="0.0"
     borderopacity="1.0"
     bordercolor="#666666"
     pagecolor="#ffffff"
     id="base">
    <sodipodi:guide
       inkscape:color="rgb(0,0,255)"
       inkscape:locked="false"
       inkscape:label=""
       id="guide24"
       orientation="0,1"
       position="105.83333,191.16667" />
    <sodipodi:guide
       inkscape:color="rgb(0,0,255)"
       inkscape:locked="false"
       inkscape:label=""
       id="guide26"
       orientation="-1,0"
       position="105.87923,260.72383" />
  </sodipodi:namedview>
  <metadata
     id="metadata5">
    <rdf:RDF>
      <cc:Work
         rdf:about="">
        <dc:format>image/svg+xml</dc:format>
        <dc:type
           rdf:resource="http://purl.org/dc/dcmitype/StillImage" />
        <dc:title></dc:title>
      </cc:Work>
    </rdf:RDF>
  </metadata>
  <g
     style="display:inline"
     inkscape:label="Calque 2"
     id="layer2"
     inkscape:groupmode="layer" />
  <g
     style="display:inline"
     id="layer1"
     inkscape:groupmode="layer"
     inkscape:label="Calque 1">
    <path
       transform="scale(0.26458333)"
       d="m 400,75 a 4.9999996,4.9999996 0 0 0 -5,5 4.9999996,4.9999996 0 0 0 5,5 4.9999996,4.9999996 0 0 0 5,-5 4.9999996,4.9999996 0 0 0 -5,-5 z m 66.49805,6.957031 a 4.9999996,4.9999996 0 0 0 -4.85352,3.960938 4.9999996,4.9999996 0 0 0 3.85156,5.929687 4.9999996,4.9999996 0 0 0 5.92969,-3.851562 4.9999996,4.9999996 0 0 0 -3.85156,-5.929688 4.9999996,4.9999996 0 0 0 -1.07617,-0.109375 z m -132.98828,0.07031 a 4.9999996,4.9999996 0 0 0 -0.14454,0.002 4.9999996,4.9999996 0 0 0 -0.93359,0.109375 4.9999996,4.9999996 0 0 0 -3.84961,5.929687 4.9999996,4.9999996 0 0 0 5.92969,3.851563 4.9999996,4.9999996 0 0 0 3.85156,-5.931641 4.9999996,4.9999996 0 0 0 -4.85351,-3.960937 z m 196.6875,20.566409 a 4.9999996,4.9999996 0 0 0 -0.14454,0.002 4.9999996,4.9999996 0 0 0 -4.44921,2.96485 4.9999996,4.9999996 0 0 0 2.5332,6.60156 4.9999996,4.9999996 0 0 0 6.60156,-2.5332 4.9999996,4.9999996 0 0 0 -2.5332,-6.60157 4.9999996,4.9999996 0 0 0 -2.00781,-0.43359 z m -260.36329,0.14258 a 4.9999996,4.9999996 0 0 0 -2.00781,0.43164 4.9999996,4.9999996 0 0 0 -2.53515,6.60156 4.9999996,4.9999996 0 0 0 6.60156,2.53516 4.9999996,4.9999996 0 0 0 2.53515,-6.60157 4.9999996,4.9999996 0 0 0 -4.59375,-2.96679 z M 399.98047,130 A 9.9999998,9.9999998 0 0 0 390,140 a 9.9999998,9.9999998 0 0 0 10,10 9.9999998,9.9999998 0 0 0 10,-10 9.9999998,9.9999998 0 0 0 -10,-10 9.9999998,9.9999998 0 0 0 -0.0195,0 z m 188.13281,6.01172 a 4.9999996,4.9999996 0 0 0 -4.0332,2.0625 4.9999996,4.9999996 0 0 0 1.10547,6.98437 4.9999996,4.9999996 0 0 0 6.98437,-1.10742 4.9999996,4.9999996 0 0 0 -1.10742,-6.98437 4.9999996,4.9999996 0 0 0 -2.94922,-0.95508 z m -376.11719,0.20508 a 4.9999996,4.9999996 0 0 0 -2.99414,0.95508 4.9999996,4.9999996 0 0 0 -1.10547,6.98437 4.9999996,4.9999996 0 0 0 6.98438,1.10547 4.9999996,4.9999996 0 0 0 1.10547,-6.98438 4.9999996,4.9999996 0 0 0 -3.99024,-2.06054 z m 120.75196,2.64258 a 9.9999998,9.9999998 0 0 0 -2.62891,0.33984 9.9999998,9.9999998 0 0 0 -7.07031,12.24805 9.9999998,9.9999998 0 0 0 12.24609,7.07031 9.9999998,9.9999998 0 0 0 7.07227,-12.2461 9.9999998,9.9999998 0 0 0 -9.61914,-7.4121 z m 134.48437,0 a 9.9999998,9.9999998 0 0 0 -9.59961,7.4121 9.9999998,9.9999998 0 0 0 7.07227,12.24805 9.9999998,9.9999998 0 0 0 12.24804,-7.07226 9.9999998,9.9999998 0 0 0 -7.07226,-12.24805 9.9999998,9.9999998 0 0 0 -2.64844,-0.33984 z m -197.15039,25.9746 A 9.9999998,9.9999998 0 0 0 265,166.17383 9.9999998,9.9999998 0 0 0 261.33984,179.83398 9.9999998,9.9999998 0 0 0 275,183.49414 a 9.9999998,9.9999998 0 0 0 3.66016,-13.66016 9.9999998,9.9999998 0 0 0 -8.57813,-5 z m 259.81641,0 a 9.9999998,9.9999998 0 0 0 -8.5586,5 A 9.9999998,9.9999998 0 0 0 525,183.49414 9.9999998,9.9999998 0 0 0 538.66016,179.83398 9.9999998,9.9999998 0 0 0 535,166.17383 9.9999998,9.9999998 0 0 0 529.89844,164.83398 Z M 399.88672,180 A 15,15 0 0 0 385,195 a 15,15 0 0 0 15,15 15,15 0 0 0 15,-15 15,15 0 0 0 -15,-15 15,15 0 0 0 -0.11328,0 z m 237.88476,0.75 a 4.9999996,4.9999996 0 0 0 -3.2539,1.2832 4.9999996,4.9999996 0 0 0 -0.36914,7.0625 4.9999996,4.9999996 0 0 0 7.06054,0.36914 4.9999996,4.9999996 0 0 0 0.3711,-7.06054 4.9999996,4.9999996 0 0 0 -3.8086,-1.6543 z m -475.57226,0.25781 a 4.9999996,4.9999996 0 0 0 -3.66406,1.6543 4.9999996,4.9999996 0 0 0 0.37109,7.06055 4.9999996,4.9999996 0 0 0 7.06055,-0.36914 4.9999996,4.9999996 0 0 0 -0.36914,-7.0625 4.9999996,4.9999996 0 0 0 -3.39844,-1.28321 z m 167.66211,11.35547 a 15,15 0 0 0 -5.10547,0.9043 15,15 0 0 0 -8.96484,19.22656 15,15 0 0 0 19.2246,8.96484 15,15 0 0 0 8.96485,-19.22656 15,15 0 0 0 -14.11914,-9.86914 z m 140.16406,0 a 15,15 0 0 0 -14.00586,9.86914 15,15 0 0 0 8.96485,19.22656 15,15 0 0 0 19.2246,-8.96484 15,15 0 0 0 -8.96484,-19.22656 15,15 0 0 0 -5.21875,-0.9043 z m -254.01562,13.78906 a 9.9999998,9.9999998 0 0 0 -6.92774,2.92969 9.9999998,9.9999998 0 0 0 0,14.14063 9.9999998,9.9999998 0 0 0 14.14063,0 9.9999998,9.9999998 0 0 0 0,-14.14063 9.9999998,9.9999998 0 0 0 -7.21289,-2.92969 z m 367.69531,0 a 9.9999998,9.9999998 0 0 0 -6.92774,2.92969 9.9999998,9.9999998 0 0 0 0,14.14063 9.9999998,9.9999998 0 0 0 14.14063,0 9.9999998,9.9999998 0 0 0 0,-14.14063 9.9999998,9.9999998 0 0 0 -7.21289,-2.92969 z m -315.52735,21.8086 a 15,15 0 0 0 -9.59179,3.50976 15,15 0 0 0 -1.84766,21.13282 15,15 0 0 0 21.13281,1.84765 15,15 0 0 0 1.84766,-21.13281 15,15 0 0 0 -11.54102,-5.35742 z m 263.53125,0 a 15,15 0 0 0 -11.42773,5.35742 15,15 0 0 0 1.84766,21.13281 15,15 0 0 0 21.13281,-1.84765 15,15 0 0 0 -1.84766,-21.13282 15,15 0 0 0 -9.70508,-3.50976 z m 145.51954,6.88867 a 4.9999996,4.9999996 0 0 0 -2.51368,0.66992 4.9999996,4.9999996 0 0 0 -1.83007,6.83008 4.9999996,4.9999996 0 0 0 6.83007,1.83008 4.9999996,4.9999996 0 0 0 1.83008,-6.83008 4.9999996,4.9999996 0 0 0 -4.3164,-2.5 z M 400,235 a 19.999999,19.999999 0 0 0 -20,20 19.999999,19.999999 0 0 0 20,20 19.999999,19.999999 0 0 0 20,-20 19.999999,19.999999 0 0 0 -20,-20 z m -277.01172,0.15039 a 4.9999996,4.9999996 0 0 0 -4.35937,2.5 4.9999996,4.9999996 0 0 0 1.83007,6.83008 4.9999996,4.9999996 0 0 0 6.83008,-1.83008 4.9999996,4.9999996 0 0 0 -1.83008,-6.83008 4.9999996,4.9999996 0 0 0 -2.4707,-0.66992 z m 349.65039,19.18945 a 19.999999,19.999999 0 0 0 -17.43555,10 19.999999,19.999999 0 0 0 7.32032,27.32032 19.999999,19.999999 0 0 0 27.32031,-7.32032 19.999999,19.999999 0 0 0 -7.32031,-27.32031 19.999999,19.999999 0 0 0 -9.88477,-2.67969 z m -145.05859,0.17383 a 19.999999,19.999999 0 0 0 -10.05664,2.67969 19.999999,19.999999 0 0 0 -7.32032,27.32031 19.999999,19.999999 0 0 0 27.32032,7.32031 19.999999,19.999999 0 0 0 7.32031,-27.32031 19.999999,19.999999 0 0 0 -17.26367,-10 z M 174.73242,260 a 9.9999998,9.9999998 0 0 0 -8.55859,5 9.9999998,9.9999998 0 0 0 3.66015,13.66016 A 9.9999998,9.9999998 0 0 0 183.49414,275 9.9999998,9.9999998 0 0 0 179.83398,261.33984 9.9999998,9.9999998 0 0 0 174.73242,260 Z m 450.51563,0 a 9.9999998,9.9999998 0 0 0 -5.08203,1.33984 A 9.9999998,9.9999998 0 0 0 616.50586,275 9.9999998,9.9999998 0 0 0 630.16602,278.66016 9.9999998,9.9999998 0 0 0 633.82617,265 a 9.9999998,9.9999998 0 0 0 -8.57812,-5 z m -402.85938,22.5 a 15,15 0 0 0 -12.91406,7.5 15,15 0 0 0 5.49023,20.49023 A 15,15 0 0 0 235.45508,305 15,15 0 0 0 229.96484,284.50977 15,15 0 0 0 222.38867,282.5 Z m 355.10938,0 a 15,15 0 0 0 -7.46289,2.00977 A 15,15 0 0 0 564.54492,305 15,15 0 0 0 585.03516,310.49023 15,15 0 0 0 590.52539,290 15,15 0 0 0 577.49805,282.5 Z m 126.89257,13.44922 a 4.9999996,4.9999996 0 0 0 -1.47851,0.24414 4.9999996,4.9999996 0 0 0 -3.20899,6.30078 4.9999996,4.9999996 0 0 0 6.30079,3.21094 4.9999996,4.9999996 0 0 0 3.20898,-6.30078 4.9999996,4.9999996 0 0 0 -4.82227,-3.45508 z M 95.703125,296.2793 a 4.9999996,4.9999996 0 0 0 -4.675781,3.45508 4.9999996,4.9999996 0 0 0 3.208984,6.30078 4.9999996,4.9999996 0 0 0 6.300782,-3.21094 4.9999996,4.9999996 0 0 0 -3.210938,-6.30078 4.9999996,4.9999996 0 0 0 -1.623047,-0.24414 z M 399.96289,300 A 24.997542,25.001218 0 0 0 375,325.00391 24.997542,25.001218 0 0 0 400,350 24.997542,25.001218 0 0 0 425,325.00391 24.997542,25.001218 0 0 0 400,300 a 24.997542,25.001218 0 0 0 -0.0371,0 z m 125.75586,7.34961 a 19.999999,19.999999 0 0 0 -10.05859,2.67969 19.999999,19.999999 0 0 0 -7.32032,27.32031 19.999999,19.999999 0 0 0 27.32032,7.32031 19.999999,19.999999 0 0 0 7.32031,-27.32031 19.999999,19.999999 0 0 0 -17.26172,-10 z m -251.08984,0.30078 a 19.999999,19.999999 0 0 0 -17.43555,10 19.999999,19.999999 0 0 0 7.32031,27.32031 19.999999,19.999999 0 0 0 27.32031,-7.32031 19.999999,19.999999 0 0 0 -7.32031,-27.32031 19.999999,19.999999 0 0 0 -9.88476,-2.67969 z m -125.83008,15.05664 a 9.9999998,9.9999998 0 0 0 -9.59961,7.41211 9.9999998,9.9999998 0 0 0 7.07226,12.24609 9.9999998,9.9999998 0 0 0 12.2461,-7.07031 9.9999998,9.9999998 0 0 0 -7.07031,-12.24804 9.9999998,9.9999998 0 0 0 -2.64844,-0.33985 z m 502.38281,0 a 9.9999998,9.9999998 0 0 0 -2.62891,0.33985 9.9999998,9.9999998 0 0 0 -7.07031,12.24804 9.9999998,9.9999998 0 0 0 12.2461,7.07227 9.9999998,9.9999998 0 0 0 7.07226,-12.24805 9.9999998,9.9999998 0 0 0 -9.61914,-7.41211 z m -186.06641,14.64258 a 24.997542,25.001218 60.000224 0 0 -12.58007,3.35156 24.997542,25.001218 60.000224 0 0 -9.14649,34.14844 24.997542,25.001218 60.000224 0 0 34.14649,9.15234 24.997542,25.001218 60.000224 0 0 9.15429,-34.15234 24.997542,25.001218 60.000224 0 0 -0.0195,-0.0312 24.997542,25.001218 60.000224 0 0 -21.55469,-12.46875 z m -129.92187,0.30078 a 25.001218,24.997542 29.999776 0 0 -21.70898,12.5 25.001218,24.997542 29.999776 0 0 -0.0195,0.0332 25.001218,24.997542 29.999776 0 0 9.17383,34.11914 25.001218,24.997542 29.999776 0 0 34.14649,-9.15234 25.001218,24.997542 29.999776 0 0 -9.14649,-34.14844 25.001218,24.997542 29.999776 0 0 -12.44531,-3.35156 z m -137.17969,11.75195 a 15,15 0 0 0 -14.67187,12.39454 15,15 0 0 0 12.16797,17.37695 15,15 0 0 0 17.37695,-12.16797 15,15 0 0 0 -12.16797,-17.375 15,15 0 0 0 -2.70508,-0.22852 z m 403.85938,0 a 15,15 0 0 0 -2.5918,0.22852 15,15 0 0 0 -12.16797,17.37695 15,15 0 0 0 17.37695,12.16602 15,15 0 0 0 12.16797,-17.37695 15,15 0 0 0 -14.78515,-12.39454 z m 116.57031,11.97657 a 4.9999996,4.9999996 0 0 0 -0.56445,0.0273 4.9999996,4.9999996 0 0 0 -4.44922,5.49414 4.9999996,4.9999996 0 0 0 5.49609,4.45117 4.9999996,4.9999996 0 0 0 4.44922,-5.49609 4.9999996,4.9999996 0 0 0 -4.93164,-4.47656 z m -636.533204,0.34375 a 4.9999996,4.9999996 0 0 0 -4.974609,4.47851 4.9999996,4.9999996 0 0 0 4.449219,5.49414 4.9999996,4.9999996 0 0 0 5.496093,-4.44922 4.9999996,4.9999996 0 0 0 -4.449218,-5.49609 4.9999996,4.9999996 0 0 0 -0.521485,-0.0273 z m 463.263674,18.10351 a 19.999999,19.999999 0 0 0 -20,20 19.999999,19.999999 0 0 0 20,20 19.999999,19.999999 0 0 0 20,-20 19.999999,19.999999 0 0 0 -20,-20 z m -290.20313,0.34766 a 19.999999,19.999999 0 0 0 -19.79687,20 19.999999,19.999999 0 0 0 20,20 19.999999,19.999999 0 0 0 20,-20 19.999999,19.999999 0 0 0 -20,-20 19.999999,19.999999 0 0 0 -0.20313,0 z M 139.98047,390 A 9.9999998,9.9999998 0 0 0 130,400 a 9.9999998,9.9999998 0 0 0 10,10 9.9999998,9.9999998 0 0 0 10,-10 9.9999998,9.9999998 0 0 0 -10,-10 9.9999998,9.9999998 0 0 0 -0.0195,0 z m 520,0 A 9.9999998,9.9999998 0 0 0 650,400 a 9.9999998,9.9999998 0 0 0 10,10 9.9999998,9.9999998 0 0 0 10,-10 9.9999998,9.9999998 0 0 0 -10,-10 9.9999998,9.9999998 0 0 0 -0.0195,0 z m -194.7168,22.34961 a 25.001218,24.997542 29.999776 0 0 -21.70312,12.5 25.001218,24.997542 29.999776 0 0 9.14843,34.14844 25.001218,24.997542 29.999776 0 0 34.1543,-9.14844 25.001218,24.997542 29.999776 0 0 0.0176,-0.0312 25.001218,24.997542 29.999776 0 0 -9.17188,-34.12109 25.001218,24.997542 29.999776 0 0 -12.44531,-3.34766 z m -129.84179,0.30078 a 24.997542,25.001218 60.000224 0 0 -12.61133,3.34766 24.997542,25.001218 60.000224 0 0 -9.15235,34.15234 24.997542,25.001218 60.000224 0 0 0.0176,0.0332 24.997542,25.001218 60.000224 0 0 34.13477,9.11524 24.997542,25.001218 60.000224 0 0 9.14843,-34.14844 24.997542,25.001218 60.000224 0 0 -21.5371,-12.5 z m -137.32032,7.94727 a 15,15 0 0 0 -2.59179,0.22851 15,15 0 0 0 -12.16797,17.37695 15,15 0 0 0 17.37695,12.16602 15,15 0 0 0 12.16797,-17.37695 15,15 0 0 0 -14.78516,-12.39453 z m 403.6836,0 a 15,15 0 0 0 -14.67188,12.39648 15,15 0 0 0 12.16797,17.375 15,15 0 0 0 17.37695,-12.16602 15,15 0 0 0 -12.16797,-17.37695 15,15 0 0 0 -2.70507,-0.22851 z m 116.65625,7.67968 a 4.9999996,4.9999996 0 0 0 -4.97461,4.47657 4.9999996,4.9999996 0 0 0 4.44922,5.49609 4.9999996,4.9999996 0 0 0 5.49609,-4.45117 4.9999996,4.9999996 0 0 0 -4.45117,-5.49414 4.9999996,4.9999996 0 0 0 -0.51953,-0.0274 z m -636.457035,0.34375 a 4.9999996,4.9999996 0 0 0 -0.5625,0.0274 4.9999996,4.9999996 0 0 0 -4.449219,5.49609 4.9999996,4.9999996 0 0 0 5.494141,4.44922 4.9999996,4.9999996 0 0 0 4.451172,-5.49414 4.9999996,4.9999996 0 0 0 -4.933594,-4.47852 z M 400.34766,450 a 24.997542,25.001218 0 0 0 -25,24.99609 24.997542,25.001218 0 0 0 25,25.00391 24.997542,25.001218 0 0 0 0.0371,0 24.997542,25.001218 0 0 0 24.96289,-25.00391 24.997542,25.001218 0 0 0 -25,-24.99609 z m 125.60156,2.34961 a 19.999999,19.999999 0 0 0 -17.43555,10 19.999999,19.999999 0 0 0 7.32031,27.32031 19.999999,19.999999 0 0 0 27.32032,-7.32031 19.999999,19.999999 0 0 0 -7.32032,-27.32031 19.999999,19.999999 0 0 0 -9.88476,-2.67969 z m -251.20508,0.30078 a 19.999999,19.999999 0 0 0 -10.05859,2.67969 19.999999,19.999999 0 0 0 -7.32032,27.32031 19.999999,19.999999 0 0 0 27.32032,7.32031 19.999999,19.999999 0 0 0 7.32226,-27.32031 19.999999,19.999999 0 0 0 -17.26367,-10 z m -125.84375,4.64258 a 9.9999998,9.9999998 0 0 0 -2.62891,0.33984 9.9999998,9.9999998 0 0 0 -7.07226,12.24805 9.9999998,9.9999998 0 0 0 12.24805,7.07226 9.9999998,9.9999998 0 0 0 7.07031,-12.24804 9.9999998,9.9999998 0 0 0 -9.61719,-7.41211 z m 502.17969,0 a 9.9999998,9.9999998 0 0 0 -9.59961,7.41211 9.9999998,9.9999998 0 0 0 7.07226,12.24804 9.9999998,9.9999998 0 0 0 12.24805,-7.07226 9.9999998,9.9999998 0 0 0 -7.07226,-12.24805 9.9999998,9.9999998 0 0 0 -2.64844,-0.33984 z M 222.42773,487.5 a 15,15 0 0 0 -7.46289,2.00977 A 15,15 0 0 0 209.47461,510 15,15 0 0 0 229.96484,515.49023 15,15 0 0 0 235.45508,495 15,15 0 0 0 222.42773,487.5 Z m 355.03125,0 a 15,15 0 0 0 -12.91406,7.5 15,15 0 0 0 5.49024,20.49023 A 15,15 0 0 0 590.52539,510 15,15 0 0 0 585.03516,489.50977 15,15 0 0 0 577.45898,487.5 Z m 127.02735,6.2207 a 4.9999996,4.9999996 0 0 0 -4.67578,3.45508 4.9999996,4.9999996 0 0 0 3.20898,6.30078 4.9999996,4.9999996 0 0 0 6.30078,-3.21094 4.9999996,4.9999996 0 0 0 -3.21093,-6.30078 4.9999996,4.9999996 0 0 0 -1.62305,-0.24414 z m -608.664064,0.33008 a 4.9999996,4.9999996 0 0 0 -1.478516,0.24414 4.9999996,4.9999996 0 0 0 -3.210938,6.30078 4.9999996,4.9999996 0 0 0 6.300782,3.21094 4.9999996,4.9999996 0 0 0 3.210936,-6.30078 4.9999996,4.9999996 0 0 0 -4.822264,-3.45508 z m 377.058594,11.43555 a 19.999999,19.999999 0 0 0 -10.05664,2.67969 19.999999,19.999999 0 0 0 -7.32031,27.32031 19.999999,19.999999 0 0 0 27.32031,7.32031 19.999999,19.999999 0 0 0 7.32031,-27.32031 19.999999,19.999999 0 0 0 -17.26367,-10 z m -144.94141,0.17383 a 19.999999,19.999999 0 0 0 -17.43554,10 19.999999,19.999999 0 0 0 7.32031,27.32031 19.999999,19.999999 0 0 0 27.32031,-7.32031 19.999999,19.999999 0 0 0 -7.32031,-27.32032 19.999999,19.999999 0 0 0 -9.88477,-2.67968 z M 174.91602,520 a 9.9999998,9.9999998 0 0 0 -5.08204,1.33984 A 9.9999998,9.9999998 0 0 0 166.17383,535 9.9999998,9.9999998 0 0 0 179.83398,538.66016 9.9999998,9.9999998 0 0 0 183.49414,525 a 9.9999998,9.9999998 0 0 0 -8.57812,-5 z m 450.14843,0 a 9.9999998,9.9999998 0 0 0 -8.55859,5 9.9999998,9.9999998 0 0 0 3.66016,13.66016 A 9.9999998,9.9999998 0 0 0 633.82617,535 9.9999998,9.9999998 0 0 0 630.16602,521.33984 9.9999998,9.9999998 0 0 0 625.06445,520 Z m -224.71679,5 a 19.999999,19.999999 0 0 0 -20,20 19.999999,19.999999 0 0 0 20,20 19.999999,19.999999 0 0 0 20,-20 19.999999,19.999999 0 0 0 -20,-20 z m -132.18164,17.03906 a 15,15 0 0 0 -11.42774,5.35742 15,15 0 0 0 1.84766,21.13282 15,15 0 0 0 21.13281,-1.84766 15,15 0 0 0 -1.84766,-21.13281 15,15 0 0 0 -9.70507,-3.50977 z m 263.55468,0 a 15,15 0 0 0 -9.59179,3.50977 15,15 0 0 0 -1.84766,21.13281 15,15 0 0 0 21.13281,1.84766 15,15 0 0 0 1.84766,-21.13282 15,15 0 0 0 -11.54102,-5.35742 z m 145.69727,12.81055 a 4.9999996,4.9999996 0 0 0 -4.35938,2.5 4.9999996,4.9999996 0 0 0 1.83008,6.83008 4.9999996,4.9999996 0 0 0 6.83008,-1.83008 4.9999996,4.9999996 0 0 0 -1.83008,-6.83008 4.9999996,4.9999996 0 0 0 -2.4707,-0.66992 z m -554.27149,0.30078 a 4.9999996,4.9999996 0 0 0 -2.51367,0.66992 4.9999996,4.9999996 0 0 0 -1.83008,6.83008 4.9999996,4.9999996 0 0 0 6.83008,1.83008 4.9999996,4.9999996 0 0 0 1.83008,-6.83008 4.9999996,4.9999996 0 0 0 -4.31641,-2.5 z m 92.86329,18.69727 a 9.9999998,9.9999998 0 0 0 -6.92774,2.92968 9.9999998,9.9999998 0 0 0 0,14.14063 9.9999998,9.9999998 0 0 0 14.14063,0 9.9999998,9.9999998 0 0 0 0,-14.14063 9.9999998,9.9999998 0 0 0 -6.94727,-2.92968 9.9999998,9.9999998 0 0 0 -0.26562,0 z m 367.69531,0 a 9.9999998,9.9999998 0 0 0 -6.92774,2.92968 9.9999998,9.9999998 0 0 0 0,14.14063 9.9999998,9.9999998 0 0 0 14.14063,0 9.9999998,9.9999998 0 0 0 0,-14.14063 9.9999998,9.9999998 0 0 0 -6.94727,-2.92968 9.9999998,9.9999998 0 0 0 -0.26562,0 z m -253.9082,3.78906 a 15,15 0 0 0 -14.00586,9.86914 15,15 0 0 0 8.96484,19.22656 15,15 0 0 0 19.22461,-8.96484 15,15 0 0 0 -8.96485,-19.22656 15,15 0 0 0 -5.21874,-0.9043 z m 140.29296,0 a 15,15 0 0 0 -5.10546,0.9043 15,15 0 0 0 -8.96485,19.22656 15,15 0 0 0 19.22461,8.96484 15,15 0 0 0 8.96484,-19.22656 15,15 0 0 0 -14.11914,-9.86914 z M 399.88672,590 A 15,15 0 0 0 385,605 a 15,15 0 0 0 15,15 15,15 0 0 0 15,-15 15,15 0 0 0 -15,-15 15,15 0 0 0 -0.11328,0 z m 238.15625,18.99219 a 4.9999996,4.9999996 0 0 0 -3.66211,1.65429 4.9999996,4.9999996 0 0 0 0.36914,7.0625 4.9999996,4.9999996 0 0 0 7.0625,-0.37109 4.9999996,4.9999996 0 0 0 -0.37109,-7.06055 4.9999996,4.9999996 0 0 0 -3.39844,-1.28515 z m -475.65235,0.25976 a 4.9999996,4.9999996 0 0 0 -3.2539,1.28321 4.9999996,4.9999996 0 0 0 -0.36914,7.06054 4.9999996,4.9999996 0 0 0 7.06054,0.3711 4.9999996,4.9999996 0 0 0 0.3711,-7.0625 4.9999996,4.9999996 0 0 0 -3.8086,-1.65235 z m 367.69141,5.91407 A 9.9999998,9.9999998 0 0 0 525,616.50586 9.9999998,9.9999998 0 0 0 521.33984,630.16602 9.9999998,9.9999998 0 0 0 535,633.82617 a 9.9999998,9.9999998 0 0 0 3.66016,-13.66015 9.9999998,9.9999998 0 0 0 -8.57813,-5 z m -260.18359,0.002 a 9.9999998,9.9999998 0 0 0 -8.5586,4.99805 A 9.9999998,9.9999998 0 0 0 265,633.82617 9.9999998,9.9999998 0 0 0 278.66016,630.16602 9.9999998,9.9999998 0 0 0 275,616.50586 a 9.9999998,9.9999998 0 0 0 -5.10156,-1.33789 z m 62.74804,25.97265 a 9.9999998,9.9999998 0 0 0 -9.5996,7.41211 9.9999998,9.9999998 0 0 0 7.07226,12.24805 9.9999998,9.9999998 0 0 0 12.24805,-7.07226 9.9999998,9.9999998 0 0 0 -7.07227,-12.24805 9.9999998,9.9999998 0 0 0 -2.64844,-0.33985 z m 134.6875,0 a 9.9999998,9.9999998 0 0 0 -2.6289,0.3418 9.9999998,9.9999998 0 0 0 -7.07227,12.2461 9.9999998,9.9999998 0 0 0 12.24805,7.07226 9.9999998,9.9999998 0 0 0 7.07031,-12.24805 9.9999998,9.9999998 0 0 0 -9.61719,-7.41211 z M 399.98047,650 A 9.9999998,9.9999998 0 0 0 390,660 a 9.9999998,9.9999998 0 0 0 10,10 9.9999998,9.9999998 0 0 0 10,-10 9.9999998,9.9999998 0 0 0 -10,-10 9.9999998,9.9999998 0 0 0 -0.0195,0 z m 188.48047,3.7832 a 4.9999996,4.9999996 0 0 0 -2.99414,0.95508 4.9999996,4.9999996 0 0 0 -1.10742,6.98438 4.9999996,4.9999996 0 0 0 6.98437,1.10546 4.9999996,4.9999996 0 0 0 1.10742,-6.98437 4.9999996,4.9999996 0 0 0 -3.99023,-2.06055 z m -376.25,0.20508 a 4.9999996,4.9999996 0 0 0 -4.03321,2.06055 4.9999996,4.9999996 0 0 0 1.10547,6.98437 4.9999996,4.9999996 0 0 0 6.98438,-1.10742 4.9999996,4.9999996 0 0 0 -1.10547,-6.98437 4.9999996,4.9999996 0 0 0 -2.95117,-0.95313 z m 318.25,33.27539 a 4.9999996,4.9999996 0 0 0 -2.00782,0.43164 4.9999996,4.9999996 0 0 0 -2.5332,6.60157 4.9999996,4.9999996 0 0 0 6.60156,2.53515 4.9999996,4.9999996 0 0 0 2.53321,-6.60156 4.9999996,4.9999996 0 0 0 -4.59375,-2.9668 z m -260.25977,0.14063 a 4.9999996,4.9999996 0 0 0 -0.14453,0.002 4.9999996,4.9999996 0 0 0 -4.44726,2.96484 4.9999996,4.9999996 0 0 0 2.5332,6.60157 4.9999996,4.9999996 0 0 0 6.60156,-2.53321 4.9999996,4.9999996 0 0 0 -2.53516,-6.60156 4.9999996,4.9999996 0 0 0 -2.00781,-0.43359 z m 196.71094,20.5664 a 4.9999996,4.9999996 0 0 0 -0.14453,0.002 4.9999996,4.9999996 0 0 0 -0.93164,0.10742 4.9999996,4.9999996 0 0 0 -3.85156,5.92969 4.9999996,4.9999996 0 0 0 5.92968,3.85156 4.9999996,4.9999996 0 0 0 3.85156,-5.92969 4.9999996,4.9999996 0 0 0 -4.85351,-3.96094 z m -133.13867,0.0723 a 4.9999996,4.9999996 0 0 0 -4.85352,3.96094 4.9999996,4.9999996 0 0 0 3.85156,5.92968 4.9999996,4.9999996 0 0 0 5.93164,-3.85156 4.9999996,4.9999996 0 0 0 -3.85156,-5.92969 4.9999996,4.9999996 0 0 0 -1.07812,-0.10937 z M 400.34766,715 a 4.9999996,4.9999996 0 0 0 -5,5 4.9999996,4.9999996 0 0 0 5,5 4.9999996,4.9999996 0 0 0 5,-5 4.9999996,4.9999996 0 0 0 -5,-5 z"
       inkscape:transform-center-y="-38.364581"
       inkscape:transform-center-x="0.045884722"
       style="fill:url(#linearGradient2743);fill-opacity:1;fill-rule:evenodd;stroke-width:0.658908"
       id="path45" />
    <ellipse
       ry="2.9722338"
       rx="6.8431187e-13"
       cy="108.80556"
       cx="105.87923"
       id="path1635"
       style="fill:#ff0000;fill-rule:evenodd;stroke-width:0.264583" />
  </g>
</svg>
