<?xml version="1.0" encoding="UTF-8"?>
<svg width="210mm" height="297mm" version="1.1" viewBox="0 0 210 297" xmlns="http://www.w3.org/2000/svg" xmlns:cc="http://creativecommons.org/ns#" xmlns:dc="http://purl.org/dc/elements/1.1/" xmlns:rdf="http://www.w3.org/1999/02/22-rdf-syntax-ns#" xmlns:xlink="http://www.w3.org/1999/xlink">
 <defs>
  <linearGradient id="linearGradient2743" x1="400.35" x2="400" y1="715" y2="75" gradientUnits="userSpaceOnUse">
   <stop stop-color="#22014f" offset="0"/>
   <stop stop-color="#fe8507" offset="1"/>
  </linearGradient>
 </defs>
 <metadata>
  <rdf:RDF>
   <cc:Work rdf:about="">
    <dc:format>image/svg+xml</dc:format>
    <dc:type rdf:resource="http://purl.org/dc/dcmitype/StillImage"/>
    <dc:title/>
   </cc:Work>
  </rdf:RDF>
 </metadata>
 <g fill-rule="evenodd">
  <path transform="scale(.26458)" d="m400 75a5 5 0 0 0-5 5 5 5 0 0 0 5 5 5 5 0 0 0 5-5 5 5 0 0 0-5-5zm66.498 6.957a5 5 0 0 0-4.8535 3.9609 5 5 0 0 0 3.8516 5.9297 5 5 0 0 0 5.9297-3.8516 5 5 0 0 0-3.8516-5.9297 5 5 0 0 0-1.0762-0.10938zm-132.99 0.07031a5 5 0 0 0-0.14454 2e-3 5 5 0 0 0-0.93359 0.10938 5 5 0 0 0-3.8496 5.9297 5 5 0 0 0 5.9297 3.8516 5 5 0 0 0 3.8516-5.9316 5 5 0 0 0-4.8535-3.9609zm196.69 20.566a5 5 0 0 0-0.14454 2e-3 5 5 0 0 0-4.4492 2.9648 5 5 0 0 0 2.5332 6.6016 5 5 0 0 0 6.6016-2.5332 5 5 0 0 0-2.5332-6.6016 5 5 0 0 0-2.0078-0.43359zm-260.36 0.14258a5 5 0 0 0-2.0078 0.43164 5 5 0 0 0-2.5352 6.6016 5 5 0 0 0 6.6016 2.5352 5 5 0 0 0 2.5352-6.6016 5 5 0 0 0-4.5938-2.9668zm130.15 27.264a10 10 0 0 0-9.9805 10 10 10 0 0 0 10 10 10 10 0 0 0 10-10 10 10 0 0 0-10-10 10 10 0 0 0-0.0195 0zm188.13 6.0117a5 5 0 0 0-4.0332 2.0625 5 5 0 0 0 1.1055 6.9844 5 5 0 0 0 6.9844-1.1074 5 5 0 0 0-1.1074-6.9844 5 5 0 0 0-2.9492-0.95508zm-376.12 0.20508a5 5 0 0 0-2.9941 0.95508 5 5 0 0 0-1.1055 6.9844 5 5 0 0 0 6.9844 1.1055 5 5 0 0 0 1.1055-6.9844 5 5 0 0 0-3.9902-2.0605zm120.75 2.6426a10 10 0 0 0-2.6289 0.33984 10 10 0 0 0-7.0703 12.248 10 10 0 0 0 12.246 7.0703 10 10 0 0 0 7.0723-12.246 10 10 0 0 0-9.6191-7.4121zm134.48 0a10 10 0 0 0-9.5996 7.4121 10 10 0 0 0 7.0723 12.248 10 10 0 0 0 12.248-7.0723 10 10 0 0 0-7.0723-12.248 10 10 0 0 0-2.6484-0.33984zm-197.15 25.975a10 10 0 0 0-5.082 1.3398 10 10 0 0 0-3.6602 13.66 10 10 0 0 0 13.66 3.6602 10 10 0 0 0 3.6602-13.66 10 10 0 0 0-8.5781-5zm259.82 0a10 10 0 0 0-8.5586 5 10 10 0 0 0 3.6602 13.66 10 10 0 0 0 13.66-3.6602 10 10 0 0 0-3.6602-13.66 10 10 0 0 0-5.1016-1.3398zm-130.01 15.166a15 15 0 0 0-14.887 15 15 15 0 0 0 15 15 15 15 0 0 0 15-15 15 15 0 0 0-15-15 15 15 0 0 0-0.11328 0zm237.88 0.75a5 5 0 0 0-3.2539 1.2832 5 5 0 0 0-0.36914 7.0625 5 5 0 0 0 7.0605 0.36914 5 5 0 0 0 0.3711-7.0605 5 5 0 0 0-3.8086-1.6543zm-475.57 0.25781a5 5 0 0 0-3.6641 1.6543 5 5 0 0 0 0.37109 7.0606 5 5 0 0 0 7.0606-0.36914 5 5 0 0 0-0.36914-7.0625 5 5 0 0 0-3.3984-1.2832zm167.66 11.355a15 15 0 0 0-5.1055 0.9043 15 15 0 0 0-8.9648 19.227 15 15 0 0 0 19.225 8.9648 15 15 0 0 0 8.9648-19.227 15 15 0 0 0-14.119-9.8691zm140.16 0a15 15 0 0 0-14.006 9.8691 15 15 0 0 0 8.9648 19.227 15 15 0 0 0 19.225-8.9648 15 15 0 0 0-8.9648-19.227 15 15 0 0 0-5.2188-0.9043zm-254.02 13.789a10 10 0 0 0-6.9277 2.9297 10 10 0 0 0 0 14.141 10 10 0 0 0 14.141 0 10 10 0 0 0 0-14.141 10 10 0 0 0-7.2129-2.9297zm367.7 0a10 10 0 0 0-6.9277 2.9297 10 10 0 0 0 0 14.141 10 10 0 0 0 14.141 0 10 10 0 0 0 0-14.141 10 10 0 0 0-7.2129-2.9297zm-315.53 21.809a15 15 0 0 0-9.5918 3.5098 15 15 0 0 0-1.8477 21.133 15 15 0 0 0 21.133 1.8476 15 15 0 0 0 1.8477-21.133 15 15 0 0 0-11.541-5.3574zm263.53 0a15 15 0 0 0-11.428 5.3574 15 15 0 0 0 1.8477 21.133 15 15 0 0 0 21.133-1.8476 15 15 0 0 0-1.8477-21.133 15 15 0 0 0-9.7051-3.5098zm145.52 6.8887a5 5 0 0 0-2.5137 0.66992 5 5 0 0 0-1.8301 6.8301 5 5 0 0 0 6.8301 1.8301 5 5 0 0 0 1.8301-6.8301 5 5 0 0 0-4.3164-2.5zm-277.23 0.15039a20 20 0 0 0-20 20 20 20 0 0 0 20 20 20 20 0 0 0 20-20 20 20 0 0 0-20-20zm-277.01 0.15039a5 5 0 0 0-4.3594 2.5 5 5 0 0 0 1.8301 6.8301 5 5 0 0 0 6.8301-1.8301 5 5 0 0 0-1.8301-6.8301 5 5 0 0 0-2.4707-0.66992zm349.65 19.189a20 20 0 0 0-17.436 10 20 20 0 0 0 7.3203 27.32 20 20 0 0 0 27.32-7.3203 20 20 0 0 0-7.3203-27.32 20 20 0 0 0-9.8848-2.6797zm-145.06 0.17383a20 20 0 0 0-10.057 2.6797 20 20 0 0 0-7.3203 27.32 20 20 0 0 0 27.32 7.3203 20 20 0 0 0 7.3203-27.32 20 20 0 0 0-17.264-10zm-152.85 5.4863a10 10 0 0 0-8.5586 5 10 10 0 0 0 3.6602 13.66 10 10 0 0 0 13.66-3.6602 10 10 0 0 0-3.6602-13.66 10 10 0 0 0-5.1016-1.3398zm450.52 0a10 10 0 0 0-5.082 1.3398 10 10 0 0 0-3.6602 13.66 10 10 0 0 0 13.66 3.6602 10 10 0 0 0 3.6602-13.66 10 10 0 0 0-8.5781-5zm-402.86 22.5a15 15 0 0 0-12.914 7.5 15 15 0 0 0 5.4902 20.49 15 15 0 0 0 20.49-5.4902 15 15 0 0 0-5.4902-20.49 15 15 0 0 0-7.5762-2.0098zm355.11 0a15 15 0 0 0-7.4629 2.0098 15 15 0 0 0-5.4902 20.49 15 15 0 0 0 20.49 5.4902 15 15 0 0 0 5.4902-20.49 15 15 0 0 0-13.027-7.5zm126.89 13.449a5 5 0 0 0-1.4785 0.24414 5 5 0 0 0-3.209 6.3008 5 5 0 0 0 6.3008 3.2109 5 5 0 0 0 3.209-6.3008 5 5 0 0 0-4.8223-3.4551zm-608.69 0.33008a5 5 0 0 0-4.6758 3.4551 5 5 0 0 0 3.209 6.3008 5 5 0 0 0 6.3008-3.2109 5 5 0 0 0-3.2109-6.3008 5 5 0 0 0-1.623-0.24414zm304.26 3.7207a24.998 25.001 0 0 0-24.963 25.004 24.998 25.001 0 0 0 25 24.996 24.998 25.001 0 0 0 25-24.996 24.998 25.001 0 0 0-25-25.004 24.998 25.001 0 0 0-0.0371 0zm125.76 7.3496a20 20 0 0 0-10.059 2.6797 20 20 0 0 0-7.3203 27.32 20 20 0 0 0 27.32 7.3203 20 20 0 0 0 7.3203-27.32 20 20 0 0 0-17.262-10zm-251.09 0.30078a20 20 0 0 0-17.436 10 20 20 0 0 0 7.3203 27.32 20 20 0 0 0 27.32-7.3203 20 20 0 0 0-7.3203-27.32 20 20 0 0 0-9.8848-2.6797zm-125.83 15.057a10 10 0 0 0-9.5996 7.4121 10 10 0 0 0 7.0723 12.246 10 10 0 0 0 12.246-7.0703 10 10 0 0 0-7.0703-12.248 10 10 0 0 0-2.6484-0.33985zm502.38 0a10 10 0 0 0-2.6289 0.33985 10 10 0 0 0-7.0703 12.248 10 10 0 0 0 12.246 7.0723 10 10 0 0 0 7.0723-12.248 10 10 0 0 0-9.6191-7.4121zm-186.07 14.643a24.998 25.001 60 0 0-12.58 3.3516 24.998 25.001 60 0 0-9.1465 34.148 24.998 25.001 60 0 0 34.146 9.1523 24.998 25.001 60 0 0 9.1543-34.152 24.998 25.001 60 0 0-0.0195-0.0312 24.998 25.001 60 0 0-21.555-12.469zm-129.92 0.30078a25.001 24.998 30 0 0-21.709 12.5 25.001 24.998 30 0 0-0.0195 0.0332 25.001 24.998 30 0 0 9.1738 34.119 25.001 24.998 30 0 0 34.146-9.1523 25.001 24.998 30 0 0-9.1465-34.148 25.001 24.998 30 0 0-12.445-3.3516zm-137.18 11.752a15 15 0 0 0-14.672 12.395 15 15 0 0 0 12.168 17.377 15 15 0 0 0 17.377-12.168 15 15 0 0 0-12.168-17.375 15 15 0 0 0-2.7051-0.22852zm403.86 0a15 15 0 0 0-2.5918 0.22852 15 15 0 0 0-12.168 17.377 15 15 0 0 0 17.377 12.166 15 15 0 0 0 12.168-17.377 15 15 0 0 0-14.785-12.395zm116.57 11.977a5 5 0 0 0-0.56445 0.0273 5 5 0 0 0-4.4492 5.4941 5 5 0 0 0 5.4961 4.4512 5 5 0 0 0 4.4492-5.4961 5 5 0 0 0-4.9316-4.4766zm-636.53 0.34375a5 5 0 0 0-4.9746 4.4785 5 5 0 0 0 4.4492 5.4941 5 5 0 0 0 5.4961-4.4492 5 5 0 0 0-4.4492-5.4961 5 5 0 0 0-0.52148-0.0273zm463.26 18.104a20 20 0 0 0-20 20 20 20 0 0 0 20 20 20 20 0 0 0 20-20 20 20 0 0 0-20-20zm-290.2 0.34766a20 20 0 0 0-19.797 20 20 20 0 0 0 20 20 20 20 0 0 0 20-20 20 20 0 0 0-20-20 20 20 0 0 0-0.20313 0zm-114.99 9.8262a10 10 0 0 0-9.9805 10 10 10 0 0 0 10 10 10 10 0 0 0 10-10 10 10 0 0 0-10-10 10 10 0 0 0-0.0195 0zm520 0a10 10 0 0 0-9.9805 10 10 10 0 0 0 10 10 10 10 0 0 0 10-10 10 10 0 0 0-10-10 10 10 0 0 0-0.0195 0zm-194.72 22.35a25.001 24.998 30 0 0-21.703 12.5 25.001 24.998 30 0 0 9.1484 34.148 25.001 24.998 30 0 0 34.154-9.1484 25.001 24.998 30 0 0 0.0176-0.0312 25.001 24.998 30 0 0-9.1719-34.121 25.001 24.998 30 0 0-12.445-3.3477zm-129.84 0.30078a24.998 25.001 60 0 0-12.611 3.3477 24.998 25.001 60 0 0-9.1524 34.152 24.998 25.001 60 0 0 0.0176 0.0332 24.998 25.001 60 0 0 34.135 9.1152 24.998 25.001 60 0 0 9.1484-34.148 24.998 25.001 60 0 0-21.537-12.5zm-137.32 7.9473a15 15 0 0 0-2.5918 0.22851 15 15 0 0 0-12.168 17.377 15 15 0 0 0 17.377 12.166 15 15 0 0 0 12.168-17.377 15 15 0 0 0-14.785-12.395zm403.68 0a15 15 0 0 0-14.672 12.396 15 15 0 0 0 12.168 17.375 15 15 0 0 0 17.377-12.166 15 15 0 0 0-12.168-17.377 15 15 0 0 0-2.7051-0.22851zm116.66 7.6797a5 5 0 0 0-4.9746 4.4766 5 5 0 0 0 4.4492 5.4961 5 5 0 0 0 5.4961-4.4512 5 5 0 0 0-4.4512-5.4941 5 5 0 0 0-0.51953-0.0274zm-636.46 0.34375a5 5 0 0 0-0.5625 0.0274 5 5 0 0 0-4.4492 5.4961 5 5 0 0 0 5.4941 4.4492 5 5 0 0 0 4.4512-5.4941 5 5 0 0 0-4.9336-4.4785zm318.36 21.379a24.998 25.001 0 0 0-25 24.996 24.998 25.001 0 0 0 25 25.004 24.998 25.001 0 0 0 0.0371 0 24.998 25.001 0 0 0 24.963-25.004 24.998 25.001 0 0 0-25-24.996zm125.6 2.3496a20 20 0 0 0-17.436 10 20 20 0 0 0 7.3203 27.32 20 20 0 0 0 27.32-7.3203 20 20 0 0 0-7.3203-27.32 20 20 0 0 0-9.8848-2.6797zm-251.21 0.30078a20 20 0 0 0-10.059 2.6797 20 20 0 0 0-7.3203 27.32 20 20 0 0 0 27.32 7.3203 20 20 0 0 0 7.3223-27.32 20 20 0 0 0-17.264-10zm-125.84 4.6426a10 10 0 0 0-2.6289 0.33984 10 10 0 0 0-7.0723 12.248 10 10 0 0 0 12.248 7.0723 10 10 0 0 0 7.0703-12.248 10 10 0 0 0-9.6172-7.4121zm502.18 0a10 10 0 0 0-9.5996 7.4121 10 10 0 0 0 7.0723 12.248 10 10 0 0 0 12.248-7.0723 10 10 0 0 0-7.0723-12.248 10 10 0 0 0-2.6484-0.33984zm-428.65 30.207a15 15 0 0 0-7.4629 2.0098 15 15 0 0 0-5.4902 20.49 15 15 0 0 0 20.49 5.4902 15 15 0 0 0 5.4902-20.49 15 15 0 0 0-13.027-7.5zm355.03 0a15 15 0 0 0-12.914 7.5 15 15 0 0 0 5.4902 20.49 15 15 0 0 0 20.49-5.4902 15 15 0 0 0-5.4902-20.49 15 15 0 0 0-7.5762-2.0098zm127.03 6.2207a5 5 0 0 0-4.6758 3.4551 5 5 0 0 0 3.209 6.3008 5 5 0 0 0 6.3008-3.2109 5 5 0 0 0-3.2109-6.3008 5 5 0 0 0-1.623-0.24414zm-608.66 0.33008a5 5 0 0 0-1.4785 0.24414 5 5 0 0 0-3.2109 6.3008 5 5 0 0 0 6.3008 3.2109 5 5 0 0 0 3.2109-6.3008 5 5 0 0 0-4.8223-3.4551zm377.06 11.436a20 20 0 0 0-10.057 2.6797 20 20 0 0 0-7.3203 27.32 20 20 0 0 0 27.32 7.3203 20 20 0 0 0 7.3203-27.32 20 20 0 0 0-17.264-10zm-144.94 0.17383a20 20 0 0 0-17.436 10 20 20 0 0 0 7.3203 27.32 20 20 0 0 0 27.32-7.3203 20 20 0 0 0-7.3203-27.32 20 20 0 0 0-9.8848-2.6797zm-153.02 14.34a10 10 0 0 0-5.082 1.3398 10 10 0 0 0-3.6602 13.66 10 10 0 0 0 13.66 3.6602 10 10 0 0 0 3.6602-13.66 10 10 0 0 0-8.5781-5zm450.15 0a10 10 0 0 0-8.5586 5 10 10 0 0 0 3.6602 13.66 10 10 0 0 0 13.66-3.6602 10 10 0 0 0-3.6602-13.66 10 10 0 0 0-5.1016-1.3398zm-224.72 5a20 20 0 0 0-20 20 20 20 0 0 0 20 20 20 20 0 0 0 20-20 20 20 0 0 0-20-20zm-132.18 17.039a15 15 0 0 0-11.428 5.3574 15 15 0 0 0 1.8477 21.133 15 15 0 0 0 21.133-1.8477 15 15 0 0 0-1.8477-21.133 15 15 0 0 0-9.7051-3.5098zm263.55 0a15 15 0 0 0-9.5918 3.5098 15 15 0 0 0-1.8477 21.133 15 15 0 0 0 21.133 1.8477 15 15 0 0 0 1.8477-21.133 15 15 0 0 0-11.541-5.3574zm145.7 12.811a5 5 0 0 0-4.3594 2.5 5 5 0 0 0 1.8301 6.8301 5 5 0 0 0 6.8301-1.8301 5 5 0 0 0-1.8301-6.8301 5 5 0 0 0-2.4707-0.66992zm-554.27 0.30078a5 5 0 0 0-2.5137 0.66992 5 5 0 0 0-1.8301 6.8301 5 5 0 0 0 6.8301 1.8301 5 5 0 0 0 1.8301-6.8301 5 5 0 0 0-4.3164-2.5zm92.863 18.697a10 10 0 0 0-6.9277 2.9297 10 10 0 0 0 0 14.141 10 10 0 0 0 14.141 0 10 10 0 0 0 0-14.141 10 10 0 0 0-6.9473-2.9297 10 10 0 0 0-0.26562 0zm367.7 0a10 10 0 0 0-6.9277 2.9297 10 10 0 0 0 0 14.141 10 10 0 0 0 14.141 0 10 10 0 0 0 0-14.141 10 10 0 0 0-6.9473-2.9297 10 10 0 0 0-0.26562 0zm-253.91 3.7891a15 15 0 0 0-14.006 9.8691 15 15 0 0 0 8.9648 19.227 15 15 0 0 0 19.225-8.9648 15 15 0 0 0-8.9648-19.227 15 15 0 0 0-5.2187-0.9043zm140.29 0a15 15 0 0 0-5.1055 0.9043 15 15 0 0 0-8.9648 19.227 15 15 0 0 0 19.225 8.9648 15 15 0 0 0 8.9648-19.227 15 15 0 0 0-14.119-9.8691zm-70.203 12.363a15 15 0 0 0-14.887 15 15 15 0 0 0 15 15 15 15 0 0 0 15-15 15 15 0 0 0-15-15 15 15 0 0 0-0.11328 0zm238.16 18.992a5 5 0 0 0-3.6621 1.6543 5 5 0 0 0 0.36914 7.0625 5 5 0 0 0 7.0625-0.37109 5 5 0 0 0-0.37109-7.0606 5 5 0 0 0-3.3984-1.2852zm-475.65 0.25976a5 5 0 0 0-3.2539 1.2832 5 5 0 0 0-0.36914 7.0605 5 5 0 0 0 7.0605 0.3711 5 5 0 0 0 0.3711-7.0625 5 5 0 0 0-3.8086-1.6524zm367.69 5.9141a10 10 0 0 0-5.082 1.3398 10 10 0 0 0-3.6602 13.66 10 10 0 0 0 13.66 3.6602 10 10 0 0 0 3.6602-13.66 10 10 0 0 0-8.5781-5zm-260.18 2e-3a10 10 0 0 0-8.5586 4.998 10 10 0 0 0 3.6602 13.66 10 10 0 0 0 13.66-3.6602 10 10 0 0 0-3.6602-13.66 10 10 0 0 0-5.1016-1.3379zm62.748 25.973a10 10 0 0 0-9.5996 7.4121 10 10 0 0 0 7.0723 12.248 10 10 0 0 0 12.248-7.0723 10 10 0 0 0-7.0723-12.248 10 10 0 0 0-2.6484-0.33985zm134.69 0a10 10 0 0 0-2.6289 0.3418 10 10 0 0 0-7.0723 12.246 10 10 0 0 0 12.248 7.0723 10 10 0 0 0 7.0703-12.248 10 10 0 0 0-9.6172-7.4121zm-67.354 8.8593a10 10 0 0 0-9.9805 10 10 10 0 0 0 10 10 10 10 0 0 0 10-10 10 10 0 0 0-10-10 10 10 0 0 0-0.0195 0zm188.48 3.7832a5 5 0 0 0-2.9941 0.95508 5 5 0 0 0-1.1074 6.9844 5 5 0 0 0 6.9844 1.1055 5 5 0 0 0 1.1074-6.9844 5 5 0 0 0-3.9902-2.0606zm-376.25 0.20508a5 5 0 0 0-4.0332 2.0606 5 5 0 0 0 1.1055 6.9844 5 5 0 0 0 6.9844-1.1074 5 5 0 0 0-1.1055-6.9844 5 5 0 0 0-2.9512-0.95313zm318.25 33.275a5 5 0 0 0-2.0078 0.43164 5 5 0 0 0-2.5332 6.6016 5 5 0 0 0 6.6016 2.5352 5 5 0 0 0 2.5332-6.6016 5 5 0 0 0-4.5938-2.9668zm-260.26 0.14063a5 5 0 0 0-0.14453 2e-3 5 5 0 0 0-4.4473 2.9648 5 5 0 0 0 2.5332 6.6016 5 5 0 0 0 6.6016-2.5332 5 5 0 0 0-2.5352-6.6016 5 5 0 0 0-2.0078-0.43359zm196.71 20.566a5 5 0 0 0-0.14453 2e-3 5 5 0 0 0-0.93164 0.10742 5 5 0 0 0-3.8516 5.9297 5 5 0 0 0 5.9297 3.8516 5 5 0 0 0 3.8516-5.9297 5 5 0 0 0-4.8535-3.9609zm-133.14 0.0723a5 5 0 0 0-4.8535 3.9609 5 5 0 0 0 3.8516 5.9297 5 5 0 0 0 5.9316-3.8516 5 5 0 0 0-3.8516-5.9297 5 5 0 0 0-1.0781-0.10937zm66.574 6.957a5 5 0 0 0-5 5 5 5 0 0 0 5 5 5 5 0 0 0 5-5 5 5 0 0 0-5-5z" fill="url(#linearGradient2743)" stroke-width=".65891"/>
  <ellipse cx="105.88" cy="108.81" rx="6.8431e-13" ry="2.9722" fill="#f00" stroke-width=".26458"/>
 </g>
</svg>
