<?xml version="1.0" encoding="UTF-8" standalone="no"?>
<svg xmlns="http://www.w3.org/2000/svg">
  <symbol id="akeneo" viewBox="0 0 800 800">
    <path d="M521.457 8.262c59.991 228.088-30.655 341.183-90.115 451.44-.102.182-.198.35-.299.532-166.9-10.321-315.958-103.73-416.514-177.44-.499-.86-.981-1.67-1.482-2.538 0 22.614 11.764 415.45 237.564 414.303 158.075-.804 254.49 28.705 311.149 59.515 13.965 10.266 29.816 22.126 49.162 36.133-.04-.14-.076-.277-.115-.416.438.392.875.776 1.314 1.17.01-.352.016-.7.023-1.05.209.2.414.4.62.599.167.532.333 1.063.505 1.6-.018-.39-.03-.768-.048-1.157.39.383.816.778 1.195 1.156-.401-.401-.795-.789-1.195-1.19-9.13-195.713 74.547-254.172 128.443-376.7C818.216 255.973 588.93 59.724 521.457 8.262zm90.715 780.373c.191.604.383 1.208.572 1.81-.2-.2-.399-.395-.6-.595.009-.405.02-.81.028-1.215z"/>
  </symbol>
  <symbol id="lambda" viewBox="0 0 400 400">
    <path d="M295.035 285.896h8.546c0 25.004-4.036 43.204-12.107 54.598-8.07 11.394-18.278 17.092-30.622 17.092-9.97 0-19.545-3.72-28.724-11.157-9.179-7.438-17.408-27.616-24.688-60.533l-20.415-92.105-70.74 160.471H71.419l101.6-218.868c-5.38-28.328-11.869-49.296-19.465-62.907-7.596-13.61-17.012-20.415-28.249-20.415-9.02 0-16.854 3.403-23.5 10.208-6.647 6.805-10.446 17.487-11.395 32.047h-8.546c.475-23.264 5.143-41.859 14.006-55.785 8.862-13.927 19.94-20.97 33.234-21.128 8.545 0 16.616 3.482 24.213 10.445 7.596 6.964 14.243 18.991 19.94 36.083 5.697 17.091 14.48 52.382 26.35 105.873l16.854 75.25c6.805 31.177 13.926 51.988 21.364 62.433 7.438 10.445 16.459 15.746 27.062 15.904 17.725 0 27.774-12.502 30.148-37.506z"/>
  </symbol>
  <symbol id="sylius" viewBox="0 0 800 800">
    <path fill-rule="evenodd" d="M531.855 0l-39.027 25.305-.262-.063-117.953 74.381-.263-.322-73.489 45.05 266.176 480.337-441.924-157.323 45.127 79.776L0 504.74 252.36 799.3l407.892.699-.373-.717 2.844.022L800 617.71 446.652 187.359l61.371-108.783 196.46 130.91L531.854 0z"/>
  </symbol>
  <symbol id="oro" viewBox="0 0 220 220">
    <path stroke-linejoin="round" d="M110.38 1.03c-9.249.003-19.135 4-27.006 11.85L12.2 83.866C-1.792 97.82-3.772 118.332 7.76 129.833l37.147 37.048 37.147 37.05c11.532 11.5 32.096 9.526 46.09-4.43l71.173-70.985c13.992-13.956 15.972-34.346 4.44-45.847L166.61 45.56 129.463 8.452c-5.045-5.032-11.89-7.424-19.084-7.422zm33.922 42.599c5.383-.003 10.571 2.594 14.892 7.377 8.134 9.005 9.258 16.908 3.33 24.395-5.927 7.486-77.018 79.12-90.672 92.738-6.827 6.809-16.973 1.759-24.03-6.463-7.056-8.222-11.024-19.617-5.496-25.499 11.057-11.764 67.705-66.302 87.737-86.188 4.589-4.332 9.49-6.358 14.239-6.36zm13.612 54.244l1.887 2.047c6.149 6.772 11.889 14.234 14.87 22.989a50.67 50.67 0 012.554 11.712c-15.296 15.235-30.608 30.484-45.953 45.68-4.329 4.256-8.616 8.557-12.991 12.762-4.94 4.258-11.422 6.98-18.01 6.656-3.392-.148-6.94-1.46-9.417-3.801-1.727-1.647-3.353-3.397-5.146-4.977-3.256-3.025-6.63-5.962-9.46-9.408 2.093-3.88 5.75-6.466 8.714-9.644 24.413-24.579 48.85-49.132 72.952-74.016z"/>
  </symbol>
  <symbol id="csv" viewBox="0 0 1000 1000">
    <path d="M62.4 504.5v283.2h626.3V504.5H62.4zm202.9 212.7c-11.2 8.5-25.4 12.7-42.6 12.7-21.3 0-38.7-7.3-52.4-21.8-13.7-14.5-20.5-34.4-20.5-59.6 0-26.7 6.9-47.4 20.6-62.1 13.8-14.8 31.9-22.1 54.3-22.1 19.6 0 35.5 5.8 47.7 17.4 7.3 6.8 12.7 16.7 16.4 29.5l-32 7.6c-1.9-8.3-5.8-14.9-11.9-19.7-6-4.8-13.3-7.2-21.9-7.2-11.9 0-21.5 4.3-28.9 12.8-7.4 8.5-11.1 22.3-11.1 41.4 0 20.2 3.6 34.7 10.9 43.3 7.3 8.6 16.8 12.9 28.4 12.9 8.6 0 16-2.7 22.2-8.2 6.2-5.5 10.6-14.1 13.3-25.8l31.4 9.9c-4.7 17.5-12.7 30.5-23.9 39zm166.2-10.9c-5.1 8-12.3 14-21.6 17.9-9.3 3.9-20.9 5.8-34.9 5.8-20.2 0-35.8-4.7-46.7-14-10.9-9.4-17.3-23-19.4-40.9l31.5-3.1c1.9 10.6 5.7 18.3 11.5 23.3s13.6 7.4 23.4 7.4c10.4 0 18.3-2.2 23.5-6.6 5.3-4.4 7.9-9.6 7.9-15.5 0-3.8-1.1-7-3.3-9.7-2.2-2.7-6.1-5-11.6-6.9-3.8-1.3-12.4-3.6-25.9-7-17.3-4.3-29.5-9.6-36.5-15.8-9.8-8.8-14.7-19.6-14.7-32.2 0-8.2 2.3-15.8 6.9-22.9 4.6-7.1 11.3-12.5 20-16.2 8.7-3.7 19.2-5.6 31.5-5.6 20.1 0 35.2 4.4 45.4 13.2 10.2 8.8 15.5 20.6 16 35.3l-32.3 1.4c-1.4-8.2-4.4-14.1-8.9-17.8-4.6-3.6-11.4-5.4-20.5-5.4-9.4 0-16.8 1.9-22.1 5.8-3.4 2.5-5.1 5.8-5.1 9.9 0 3.8 1.6 7 4.8 9.7 4.1 3.4 14 7 29.7 10.7 15.7 3.7 27.4 7.6 34.9 11.5 7.5 4 13.4 9.4 17.7 16.3 4.3 6.9 6.4 15.4 6.4 25.5 0 9.3-2.5 17.9-7.6 25.9zm110.2 20.9h-34.5L449.9 567H485l40.5 118.5L564.7 567H599l-57.3 160.2z"/>
    <path d="M663.2 10.4H258c-34.3-3.8-59.3 22.4-55.6 54.4l-.4 328.1h.6v112.7h76.6v-419h367.4v229.7H861v597.3H279.2V785.4h-77l.2 146.4c-3.7 32 21.2 58.2 51.8 58.2H882c30.6 0 55.6-26.2 55.6-58.2v-634L663.2 10.4z"/>
  </symbol>
  <symbol id="open_document" viewBox="0 0 1000 1000">
    <path d="M62.4 504.5v283.2h626.3V504.5H62.4zm202.9 212.7c-11.2 8.5-25.4 12.7-42.6 12.7-21.3 0-38.7-7.3-52.4-21.8-13.7-14.5-20.5-34.4-20.5-59.6 0-26.7 6.9-47.4 20.6-62.1 13.8-14.8 31.9-22.1 54.3-22.1 19.6 0 35.5 5.8 47.7 17.4 7.3 6.8 12.7 16.7 16.4 29.5l-32 7.6c-1.9-8.3-5.8-14.9-11.9-19.7-6-4.8-13.3-7.2-21.9-7.2-11.9 0-21.5 4.3-28.9 12.8-7.4 8.5-11.1 22.3-11.1 41.4 0 20.2 3.6 34.7 10.9 43.3 7.3 8.6 16.8 12.9 28.4 12.9 8.6 0 16-2.7 22.2-8.2 6.2-5.5 10.6-14.1 13.3-25.8l31.4 9.9c-4.7 17.5-12.7 30.5-23.9 39zm166.2-10.9c-5.1 8-12.3 14-21.6 17.9-9.3 3.9-20.9 5.8-34.9 5.8-20.2 0-35.8-4.7-46.7-14-10.9-9.4-17.3-23-19.4-40.9l31.5-3.1c1.9 10.6 5.7 18.3 11.5 23.3s13.6 7.4 23.4 7.4c10.4 0 18.3-2.2 23.5-6.6 5.3-4.4 7.9-9.6 7.9-15.5 0-3.8-1.1-7-3.3-9.7-2.2-2.7-6.1-5-11.6-6.9-3.8-1.3-12.4-3.6-25.9-7-17.3-4.3-29.5-9.6-36.5-15.8-9.8-8.8-14.7-19.6-14.7-32.2 0-8.2 2.3-15.8 6.9-22.9 4.6-7.1 11.3-12.5 20-16.2 8.7-3.7 19.2-5.6 31.5-5.6 20.1 0 35.2 4.4 45.4 13.2 10.2 8.8 15.5 20.6 16 35.3l-32.3 1.4c-1.4-8.2-4.4-14.1-8.9-17.8-4.6-3.6-11.4-5.4-20.5-5.4-9.4 0-16.8 1.9-22.1 5.8-3.4 2.5-5.1 5.8-5.1 9.9 0 3.8 1.6 7 4.8 9.7 4.1 3.4 14 7 29.7 10.7 15.7 3.7 27.4 7.6 34.9 11.5 7.5 4 13.4 9.4 17.7 16.3 4.3 6.9 6.4 15.4 6.4 25.5 0 9.3-2.5 17.9-7.6 25.9zm110.2 20.9h-34.5L449.9 567H485l40.5 118.5L564.7 567H599l-57.3 160.2z"/>
    <path d="M663.2 10.4H258c-34.3-3.8-59.3 22.4-55.6 54.4l-.4 328.1h.6v112.7h76.6v-419h367.4v229.7H861v597.3H279.2V785.4h-77l.2 146.4c-3.7 32 21.2 58.2 51.8 58.2H882c30.6 0 55.6-26.2 55.6-58.2v-634L663.2 10.4z"/>
  </symbol>
  <symbol id="excel" viewBox="0 0 1000 1000">
    <path d="M62.4 504.5v283.2h626.3V504.5H62.4zm202.9 212.7c-11.2 8.5-25.4 12.7-42.6 12.7-21.3 0-38.7-7.3-52.4-21.8-13.7-14.5-20.5-34.4-20.5-59.6 0-26.7 6.9-47.4 20.6-62.1 13.8-14.8 31.9-22.1 54.3-22.1 19.6 0 35.5 5.8 47.7 17.4 7.3 6.8 12.7 16.7 16.4 29.5l-32 7.6c-1.9-8.3-5.8-14.9-11.9-19.7-6-4.8-13.3-7.2-21.9-7.2-11.9 0-21.5 4.3-28.9 12.8-7.4 8.5-11.1 22.3-11.1 41.4 0 20.2 3.6 34.7 10.9 43.3 7.3 8.6 16.8 12.9 28.4 12.9 8.6 0 16-2.7 22.2-8.2 6.2-5.5 10.6-14.1 13.3-25.8l31.4 9.9c-4.7 17.5-12.7 30.5-23.9 39zm166.2-10.9c-5.1 8-12.3 14-21.6 17.9-9.3 3.9-20.9 5.8-34.9 5.8-20.2 0-35.8-4.7-46.7-14-10.9-9.4-17.3-23-19.4-40.9l31.5-3.1c1.9 10.6 5.7 18.3 11.5 23.3s13.6 7.4 23.4 7.4c10.4 0 18.3-2.2 23.5-6.6 5.3-4.4 7.9-9.6 7.9-15.5 0-3.8-1.1-7-3.3-9.7-2.2-2.7-6.1-5-11.6-6.9-3.8-1.3-12.4-3.6-25.9-7-17.3-4.3-29.5-9.6-36.5-15.8-9.8-8.8-14.7-19.6-14.7-32.2 0-8.2 2.3-15.8 6.9-22.9 4.6-7.1 11.3-12.5 20-16.2 8.7-3.7 19.2-5.6 31.5-5.6 20.1 0 35.2 4.4 45.4 13.2 10.2 8.8 15.5 20.6 16 35.3l-32.3 1.4c-1.4-8.2-4.4-14.1-8.9-17.8-4.6-3.6-11.4-5.4-20.5-5.4-9.4 0-16.8 1.9-22.1 5.8-3.4 2.5-5.1 5.8-5.1 9.9 0 3.8 1.6 7 4.8 9.7 4.1 3.4 14 7 29.7 10.7 15.7 3.7 27.4 7.6 34.9 11.5 7.5 4 13.4 9.4 17.7 16.3 4.3 6.9 6.4 15.4 6.4 25.5 0 9.3-2.5 17.9-7.6 25.9zm110.2 20.9h-34.5L449.9 567H485l40.5 118.5L564.7 567H599l-57.3 160.2z"/>
    <path d="M663.2 10.4H258c-34.3-3.8-59.3 22.4-55.6 54.4l-.4 328.1h.6v112.7h76.6v-419h367.4v229.7H861v597.3H279.2V785.4h-77l.2 146.4c-3.7 32 21.2 58.2 51.8 58.2H882c30.6 0 55.6-26.2 55.6-58.2v-634L663.2 10.4z"/>
  </symbol>
  <symbol id="pipeline" viewBox="0 0 64 64">
    <defs/>
    <path d="M60 11.2h-5.46V9.47a1 1 0 00-1-1h-5a1 1 0 00-1 1v1.73h-31V9.47a1 1 0 00-1-1h-5a1 1 0 00-1 1v1.73H4a1 1 0 00-1 1v15.73a1 1 0 001 1h5.46v1.72a1 1 0 001 1h5a1 1 0 001-1v-1.72h5a1.68 1.68 0 011.68 1.68v9.27h-1.73a1 1 0 00-1 1v5a1 1 0 001 1h1.73v7.62a1 1 0 001 1h15.72a1 1 0 001-1v-7.59h1.73a1 1 0 001-1v-5a1 1 0 00-1-1h-1.73v-9.3a1.68 1.68 0 011.68-1.68h5v1.72a1 1 0 001 1h5a1 1 0 001-1v-1.72H60a1 1 0 001-1V12.2a1 1 0 00-1-1zM5 26.93V13.2h4.46v13.73zm9.49 2.72h-3V10.47h3zm24.37 23.88H25.14v-6.62h13.72zm2.73-8.62H22.41v-3h19.18zm.95-18a3.68 3.68 0 00-3.68 3.68v9.27H25.14v-9.25a3.68 3.68 0 00-3.68-3.68h-5V13.2h31v13.73zm10 2.72h-3V10.47h3zm6.46-2.7h-4.46V13.2H59z" data-name="Layer 41"/>
  </symbol>
  <symbol id="fastmap" viewBox="0 0 211.667 211.667">
    <defs/>
    <path stroke-width=".166" d="M59.07 17.229a14.767 14.767 0 00-14.768 14.767A14.767 14.767 0 0059.07 46.763a14.767 14.767 0 005.546-1.081c8.663 10.079 17.3 20.182 25.955 30.268l1.794 2.093a34.457 34.457 0 00-7.044 12.371l-55.858-10.64a14.767 14.767 0 00-14.695-13.32A14.767 14.767 0 000 81.22a14.767 14.767 0 0014.768 14.767 14.767 14.767 0 0013.135-8.02c18.62 3.536 37.238 7.085 55.857 10.633a34.457 34.457 0 00-.078 2.31 34.457 34.457 0 009.393 23.644l-27.46 32.034a14.767 14.767 0 00-6.545-1.53 14.767 14.767 0 00-14.768 14.767 14.767 14.767 0 0014.768 14.767 14.767 14.767 0 0014.767-14.767 14.767 14.767 0 00-2.684-8.489c.85-.988 1.698-1.977 2.543-2.97 8.309-9.686 16.612-19.376 24.916-29.066a34.457 34.457 0 0019.528 6.068 34.457 34.457 0 0015.064-3.468c7.828 12.522 15.656 25.045 23.483 37.569a14.767 14.767 0 00-1.938 2.525 14.767 14.767 0 004.94 20.291 14.767 14.767 0 0020.291-4.94 14.767 14.767 0 00-4.94-20.291 14.767 14.767 0 00-12.148-1.458c-.539-.864-1.079-1.727-1.623-2.588-7.292-11.659-14.581-23.32-21.87-34.98a34.457 34.457 0 0012.288-19.25c2.912.364 5.824.73 8.736 1.092l21.825 2.727a14.767 14.767 0 006.976 10.774 14.767 14.767 0 0020.292-4.94 14.767 14.767 0 00-4.941-20.292 14.767 14.767 0 00-7.686-2.151 14.767 14.767 0 00-12.605 7.091 14.767 14.767 0 00-1.127 2.271c-2.051-.26-4.103-.52-6.155-.768l-24.41-3.046a34.457 34.457 0 00.005-.626 34.457 34.457 0 00-7.315-21.227c8.291-8.29 16.58-16.583 24.872-24.87a14.767 14.767 0 0019.672-5.298 14.767 14.767 0 00-4.941-20.29 14.767 14.767 0 00-7.686-2.152 14.767 14.767 0 00-12.605 7.091 14.767 14.767 0 00-.349 14.745l-24.867 24.867a34.457 34.457 0 00-21.238-7.323 34.457 34.457 0 00-18.645 5.48c-1.58-1.843-3.159-3.686-4.742-5.526L71.747 39.57a14.767 14.767 0 002.09-7.573A14.767 14.767 0 0059.07 17.23zm-.02 9.845a4.922 4.922 0 01.02 0 4.922 4.922 0 01.57.033 4.922 4.922 0 01.283.04 4.922 4.922 0 01.186.038 4.922 4.922 0 01.093.02 4.922 4.922 0 01.185.048 4.922 4.922 0 01.362.116 4.922 4.922 0 01.266.106 4.922 4.922 0 01.173.078 4.922 4.922 0 01.17.085 4.922 4.922 0 01.168.092 4.922 4.922 0 01.082.048 4.922 4.922 0 01.067.042 4.922 4.922 0 011.92 2.24 4.922 4.922 0 01.037.088 4.922 4.922 0 01.024.062 4.922 4.922 0 01.023.058 4.922 4.922 0 01.011.03 4.922 4.922 0 01.01.028 4.922 4.922 0 01.022.062 4.922 4.922 0 01.021.064 4.922 4.922 0 01.01.027 4.922 4.922 0 01.008.027 4.922 4.922 0 010 .001 4.922 4.922 0 01.027.087 4.922 4.922 0 01.001.003 4.922 4.922 0 01.018.064 4.922 4.922 0 01.008.028 4.922 4.922 0 010 .002 4.922 4.922 0 01.025.09 4.922 4.922 0 01.02.083 4.922 4.922 0 01.002.01 4.922 4.922 0 01.015.064 4.922 4.922 0 01.006.028 4.922 4.922 0 01.014.065 4.922 4.922 0 01.005.028 4.922 4.922 0 01.012.066 4.922 4.922 0 01.005.028 4.922 4.922 0 01.003.015 4.922 4.922 0 01.013.08 4.922 4.922 0 01.01.065 4.922 4.922 0 01.003.028 4.922 4.922 0 01.003.023 4.922 4.922 0 01.01.072 4.922 4.922 0 01.006.066 4.922 4.922 0 01.006.069 4.922 4.922 0 01.005.055 4.922 4.922 0 01.006.087 4.922 4.922 0 010 .007 4.922 4.922 0 01.004.067 4.922 4.922 0 010 .028 4.922 4.922 0 01.003.067 4.922 4.922 0 01.001.084 4.922 4.922 0 010 .011 4.922 4.922 0 010 .02 4.922 4.922 0 01-.074.852 4.922 4.922 0 01-.037.187 4.922 4.922 0 01-.02.093 4.922 4.922 0 01-.023.092 4.922 4.922 0 01-.141.455 4.922 4.922 0 01-.033.089 4.922 4.922 0 01-.035.088 4.922 4.922 0 01-.201.432 4.922 4.922 0 01-.045.084 4.922 4.922 0 01-.25.405 4.922 4.922 0 01-.11.155 4.922 4.922 0 01-.177.225 4.922 4.922 0 01-.061.072 4.922 4.922 0 01-.843.768 4.922 4.922 0 01-.157.108 4.922 4.922 0 01-2.715.817 4.922 4.922 0 01-.852-.075 4.922 4.922 0 01-.187-.036 4.922 4.922 0 01-.185-.044 4.922 4.922 0 01-.092-.025 4.922 4.922 0 01-.183-.054 4.922 4.922 0 01-.18-.062 4.922 4.922 0 01-.09-.033 4.922 4.922 0 01-.088-.035 4.922 4.922 0 01-.347-.157 4.922 4.922 0 01-.169-.089 4.922 4.922 0 01-.319-.192 4.922 4.922 0 01-2.23-4.12 4.922 4.922 0 014.258-4.878 4.922 4.922 0 01.094-.012 4.922 4.922 0 01.187-.018 4.922 4.922 0 01.003 0 4.922 4.922 0 01.007 0 4.922 4.922 0 01.085-.007 4.922 4.922 0 01.003 0 4.922 4.922 0 01.075-.004 4.922 4.922 0 01.046-.001 4.922 4.922 0 01.07-.002 4.922 4.922 0 01.075-.001zm118.165 9.845a4.922 4.922 0 012.553.716 4.922 4.922 0 011.647 6.764 4.922 4.922 0 01-3.078 2.234 4.922 4.922 0 01-.089.02 4.922 4.922 0 01-.004 0 4.922 4.922 0 01-.09.019 4.922 4.922 0 01-.003 0 4.922 4.922 0 01-.09.017 4.922 4.922 0 01-.005 0 4.922 4.922 0 01-.09.016 4.922 4.922 0 01-.004 0 4.922 4.922 0 01-.09.014 4.922 4.922 0 01-.098.012 4.922 4.922 0 01-.091.01 4.922 4.922 0 01-.1.008 4.922 4.922 0 01-.044.003 4.922 4.922 0 01-.332.011 4.922 4.922 0 01-.099 0 4.922 4.922 0 01-.281-.014 4.922 4.922 0 01-.004 0 4.922 4.922 0 01-.032-.003 4.922 4.922 0 01-.158-.016 4.922 4.922 0 01-.09-.012 4.922 4.922 0 01-.004 0 4.922 4.922 0 01-.09-.014 4.922 4.922 0 01-.005 0 4.922 4.922 0 01-.09-.015 4.922 4.922 0 01-.004 0 4.922 4.922 0 01-.09-.018 4.922 4.922 0 01-.19-.04 4.922 4.922 0 01-.18-.047 4.922 4.922 0 01-.004-.001 4.922 4.922 0 01-.088-.026 4.922 4.922 0 01-.274-.09 4.922 4.922 0 01-.024-.01 4.922 4.922 0 01-.154-.06 4.922 4.922 0 01-.084-.034 4.922 4.922 0 01-.002-.001 4.922 4.922 0 01-.086-.038 4.922 4.922 0 01-.004-.002 4.922 4.922 0 01-.083-.038 4.922 4.922 0 01-.004-.002 4.922 4.922 0 01-.082-.04 4.922 4.922 0 01-.004-.002 4.922 4.922 0 01-.08-.042 4.922 4.922 0 01-.005-.001 4.922 4.922 0 01-.08-.044 4.922 4.922 0 01-.168-.097 4.922 4.922 0 01-.018-.01 4.922 4.922 0 01-.965-.769 4.922 4.922 0 01-.13-.139 4.922 4.922 0 01-.302-.368 4.922 4.922 0 01-.11-.155 4.922 4.922 0 01-.154-.24 4.922 4.922 0 010-.001 4.922 4.922 0 01-.183-.334 4.922 4.922 0 01-.082-.171 4.922 4.922 0 010-.001 4.922 4.922 0 01-.11-.263 4.922 4.922 0 01-.065-.18 4.922 4.922 0 01-.03-.09 4.922 4.922 0 01-.028-.09 4.922 4.922 0 010-.001 4.922 4.922 0 01-.094-.369 4.922 4.922 0 01-.052-.28 4.922 4.922 0 01-.026-.19 4.922 4.922 0 01-.029-.379 4.922 4.922 0 01.09-1.136 4.922 4.922 0 01.032-.15 4.922 4.922 0 01.592-1.458 4.922 4.922 0 014.21-2.364zM14.748 76.299a4.922 4.922 0 01.02 0 4.922 4.922 0 013.347 1.314 4.922 4.922 0 01.004.004 4.91 4.91 0 01.35.36l.002.003a4.92 4.92 0 01.581.82l.003.003a4.922 4.922 0 01.002.004 4.929 4.929 0 01.4.917c.05.16.093.32.127.484l.001.004a4.922 4.922 0 01.002.008c.016.08.03.158.043.238v.003a4.922 4.922 0 010 .004c.013.078.023.155.031.234l.003.013a4.922 4.922 0 010 .007c.008.076.014.153.018.23a4.922 4.922 0 01.002.033 4.919 4.919 0 01-.009.619 4.922 4.922 0 010 .002c-.009.12-.023.24-.04.357a4.922 4.922 0 01-.004.021 4.922 4.922 0 010 .002c-.018.113-.04.225-.065.335a4.922 4.922 0 01-.008.037 4.899 4.899 0 01-.088.322 4.922 4.922 0 01-.009.028 4.92 4.92 0 01-.266.667v.003a4.922 4.922 0 01-.002.003 4.933 4.933 0 01-.815 1.19l-.005.007a4.922 4.922 0 01-.006.006 4.92 4.92 0 01-.25.248l-.003.004a4.922 4.922 0 01-.004.004c-.086.08-.175.156-.267.23a4.922 4.922 0 01-.014.011 4.892 4.892 0 01-1.284.736 4.922 4.922 0 01-1.777.332 4.922 4.922 0 01-4.923-4.922 4.922 4.922 0 014.903-4.925zm103.268 0a24.612 24.612 0 01.124 0 24.612 24.612 0 0114.204 4.512 24.612 24.612 0 01.153.11 24.612 24.612 0 01.02.014 24.612 24.612 0 01.153.11 24.612 24.612 0 01.02.015 24.612 24.612 0 01.151.112 24.612 24.612 0 01.02.015 24.612 24.612 0 01.022.016 24.612 24.612 0 01.317.241 24.612 24.612 0 01.168.131 24.612 24.612 0 01.148.117 24.612 24.612 0 01.019.016 24.612 24.612 0 01.165.134 24.612 24.612 0 01.146.12 24.612 24.612 0 01.019.015 24.612 24.612 0 01.163.137 24.612 24.612 0 01.143.122 24.612 24.612 0 01.02.016 24.612 24.612 0 01.141.123 24.612 24.612 0 01.019.016 24.612 24.612 0 01.044.04 24.612 24.612 0 01.115.101 24.612 24.612 0 01.14.126 24.612 24.612 0 01.019.017 24.612 24.612 0 01.139.126 24.612 24.612 0 01.018.017 24.612 24.612 0 01.138.128 24.612 24.612 0 01.018.017 24.612 24.612 0 01.137.13 24.612 24.612 0 01.017.017 24.612 24.612 0 01.154.147 24.612 24.612 0 01.134.132 24.612 24.612 0 01.035.035 24.612 24.612 0 01.116.115 24.612 24.612 0 01.079.08 24.612 24.612 0 01.088.089 24.612 24.612 0 01.124.128 24.612 24.612 0 01.007.007 24.612 24.612 0 01.017.018 24.612 24.612 0 01.13.136 24.612 24.612 0 01.017.018 24.612 24.612 0 01.129.137 24.612 24.612 0 01.016.019 24.612 24.612 0 01.128.138 24.612 24.612 0 01.017.018 24.612 24.612 0 01.126.14 24.612 24.612 0 01.016.018 24.612 24.612 0 01.125.14 24.612 24.612 0 01.016.02 24.612 24.612 0 01.14.16 24.612 24.612 0 01.09.104 24.612 24.612 0 01.033.039 24.612 24.612 0 01.016.018 24.612 24.612 0 01.121.144 24.612 24.612 0 01.017.02 24.612 24.612 0 01.12.144 24.612 24.612 0 01.015.019 24.612 24.612 0 01.119.146 24.612 24.612 0 01.016.02 24.612 24.612 0 01.034.042 24.612 24.612 0 01.098.124 24.612 24.612 0 01.117.147 24.612 24.612 0 01.015.02 24.612 24.612 0 01.13.169 24.612 24.612 0 01.114.15 24.612 24.612 0 01.015.02 24.612 24.612 0 01.112.15 24.612 24.612 0 01.015.02 24.612 24.612 0 01.11.152 24.612 24.612 0 01.016.02 24.612 24.612 0 01.11.153 24.612 24.612 0 01.065.093 24.612 24.612 0 014.497 13.59 24.612 24.612 0 01.003.135 24.612 24.612 0 01.002.13 24.612 24.612 0 01.002.213 24.612 24.612 0 010 .124 24.612 24.612 0 01-.111 2.338 24.612 24.612 0 01-.22 1.69 24.612 24.612 0 01-.074.418 24.612 24.612 0 01-.04.21 24.612 24.612 0 01-.175.833 24.612 24.612 0 01-.048.207 24.612 24.612 0 01-.103.414 24.612 24.612 0 01-.053.206 24.612 24.612 0 01-.088.322 24.612 24.612 0 01-7.702 12.065 24.612 24.612 0 01-.035.03 24.612 24.612 0 01-.034.029 24.612 24.612 0 01-.13.109 24.612 24.612 0 01-.127.107 24.612 24.612 0 01-.036.029 24.612 24.612 0 01-.13.105 24.612 24.612 0 01-.035.03 24.612 24.612 0 01-.13.104 24.612 24.612 0 01-.167.131 24.612 24.612 0 01-.168.131 24.612 24.612 0 01-.17.13 24.612 24.612 0 01-.342.253 24.612 24.612 0 01-.172.124 24.612 24.612 0 01-.174.123 24.612 24.612 0 01-.038.027 24.612 24.612 0 01-.137.096 24.612 24.612 0 01-.038.026 24.612 24.612 0 01-.137.094 24.612 24.612 0 01-.039.026 24.612 24.612 0 01-.138.092 24.612 24.612 0 01-.178.117 24.612 24.612 0 01-.131.085 24.612 24.612 0 01-.048.03 24.612 24.612 0 01-.039.026 24.612 24.612 0 01-.14.089 24.612 24.612 0 01-.181.112 24.612 24.612 0 01-.15.092 24.612 24.612 0 01-.032.02 24.612 24.612 0 01-.04.023 24.612 24.612 0 01-.143.085 24.612 24.612 0 01-.04.024 24.612 24.612 0 01-.144.084 24.612 24.612 0 01-.153.088 24.612 24.612 0 01-.031.018 24.612 24.612 0 01-.04.023 24.612 24.612 0 01-.146.081 24.612 24.612 0 01-.186.103 24.612 24.612 0 01-.565.3 24.612 24.612 0 01-.572.283 24.612 24.612 0 01-.192.092 24.612 24.612 0 01-.357.165 24.612 24.612 0 01-.03.013 24.612 24.612 0 01-.042.019 24.612 24.612 0 01-.152.067 24.612 24.612 0 01-.043.019 24.612 24.612 0 01-.042.018 24.612 24.612 0 01-9.804 2.037 24.612 24.612 0 01-13.07-3.756 24.612 24.612 0 01-.04-.026 24.612 24.612 0 01-.031-.02 24.612 24.612 0 01-.16-.102 24.612 24.612 0 01-.127-.082 24.612 24.612 0 01-.003-.002 24.612 24.612 0 01-.1-.064 24.612 24.612 0 01-.127-.085 24.612 24.612 0 01-.177-.12 24.612 24.612 0 01-.125-.084 24.612 24.612 0 01-.024-.017 24.612 24.612 0 01-.145-.101 24.612 24.612 0 01-.007-.005 24.612 24.612 0 01-.127-.09 24.612 24.612 0 01-.068-.048 24.612 24.612 0 01-.15-.108 24.612 24.612 0 01-.117-.086 24.612 24.612 0 01-.104-.077 24.612 24.612 0 01-.121-.091 24.612 24.612 0 01-.016-.012 24.612 24.612 0 01-.076-.058 24.612 24.612 0 01-.127-.097 24.612 24.612 0 01-.167-.13 24.612 24.612 0 01-.003-.003 24.612 24.612 0 01-.148-.118 24.612 24.612 0 01-.074-.06 24.612 24.612 0 01-.076-.06 24.612 24.612 0 01-.149-.122 24.612 24.612 0 01-.158-.131 24.612 24.612 0 01-.01-.01 24.612 24.612 0 01-.084-.07 24.612 24.612 0 01-.11-.094 24.612 24.612 0 01-.048-.04 24.612 24.612 0 01-.094-.082 24.612 24.612 0 01-.143-.126 24.612 24.612 0 01-.136-.121 24.612 24.612 0 01-.034-.03 24.612 24.612 0 01-.147-.134 24.612 24.612 0 01-.126-.116 24.612 24.612 0 01-.046-.042 24.612 24.612 0 01-.14-.132 24.612 24.612 0 01-.153-.147 24.612 24.612 0 01-.153-.149 24.612 24.612 0 01-.044-.043 24.612 24.612 0 01-.063-.063 24.612 24.612 0 01-.062-.061 24.612 24.612 0 01-.132-.133 24.612 24.612 0 01-.12-.123 24.612 24.612 0 01-.044-.045 24.612 24.612 0 01-.132-.139 24.612 24.612 0 01-.043-.044 24.612 24.612 0 01-.103-.11 24.612 24.612 0 01-.11-.12 24.612 24.612 0 01-.06-.065 24.612 24.612 0 01-.118-.13 24.612 24.612 0 01-.142-.158 24.612 24.612 0 01-.041-.046 24.612 24.612 0 01-.054-.062 24.612 24.612 0 01-.074-.084 24.612 24.612 0 01-.025-.029 24.612 24.612 0 01-6.005-16.11 24.612 24.612 0 01.004-.448 24.612 24.612 0 01.004-.196 24.612 24.612 0 01.007-.208 24.612 24.612 0 01.006-.159 24.612 24.612 0 01.003-.071 24.612 24.612 0 01.009-.195 24.612 24.612 0 010-.022 24.612 24.612 0 01.005-.078 24.612 24.612 0 01.008-.135 24.612 24.612 0 01.013-.19 24.612 24.612 0 01.001-.02 24.612 24.612 0 010-.007 24.612 24.612 0 01.016-.208 24.612 24.612 0 01.016-.19 24.612 24.612 0 01.002-.022 24.612 24.612 0 01.017-.19 24.612 24.612 0 01.001-.012 24.612 24.612 0 01.004-.042 24.612 24.612 0 01.019-.18 24.612 24.612 0 01.074-.634 24.612 24.612 0 01.06-.422 24.612 24.612 0 01.032-.21 24.612 24.612 0 01.03-.189 24.612 24.612 0 01.003-.013 24.612 24.612 0 01.005-.033 24.612 24.612 0 01.032-.185 24.612 24.612 0 01.034-.188 24.612 24.612 0 01.004-.022 24.612 24.612 0 01.08-.417 24.612 24.612 0 01.04-.188 24.612 24.612 0 01.003-.018 24.612 24.612 0 01.002-.01 24.612 24.612 0 01.09-.41 24.612 24.612 0 01.1-.413 24.612 24.612 0 01.052-.206 24.612 24.612 0 01.11-.412 24.612 24.612 0 01.177-.613 24.612 24.612 0 01.128-.407 24.612 24.612 0 01.066-.202 24.612 24.612 0 01.309-.873 24.612 24.612 0 013.763-6.657 24.612 24.612 0 01.107-.135 24.612 24.612 0 01.046-.056 24.612 24.612 0 01.115-.14 24.612 24.612 0 01.411-.489 24.612 24.612 0 01.282-.319 24.612 24.612 0 01.143-.158 24.612 24.612 0 01.144-.156 24.612 24.612 0 01.145-.156 24.612 24.612 0 01.295-.307 24.612 24.612 0 01.15-.151 24.612 24.612 0 01.151-.15 24.612 24.612 0 01.152-.15 24.612 24.612 0 01.153-.147 24.612 24.612 0 01.155-.147 24.612 24.612 0 01.156-.145 24.612 24.612 0 01.157-.143 24.612 24.612 0 01.159-.142 24.612 24.612 0 01.16-.141 24.612 24.612 0 01.16-.14 24.612 24.612 0 01.163-.138 24.612 24.612 0 01.142-.12 24.612 24.612 0 01.041-.033 24.612 24.612 0 01.144-.118 24.612 24.612 0 01.165-.134 24.612 24.612 0 01.147-.117 24.612 24.612 0 01.065-.05 24.612 24.612 0 01.074-.059 24.612 24.612 0 01.099-.076 24.612 24.612 0 01.053-.04 24.612 24.612 0 01.119-.09 24.612 24.612 0 01.118-.09 24.612 24.612 0 01.158-.117 24.612 24.612 0 01.027-.019 24.612 24.612 0 01.132-.096 24.612 24.612 0 01.068-.049 24.612 24.612 0 01.085-.06 24.612 24.612 0 01.068-.049 24.612 24.612 0 01.153-.106 24.612 24.612 0 01.176-.12 24.612 24.612 0 01.176-.12 24.612 24.612 0 01.178-.117 24.612 24.612 0 01.178-.116 24.612 24.612 0 01.156-.1 24.612 24.612 0 01.063-.04 24.612 24.612 0 01.128-.08 24.612 24.612 0 01.019-.01 24.612 24.612 0 01.15-.093 24.612 24.612 0 01.059-.036 24.612 24.612 0 01.146-.088 24.612 24.612 0 01.006-.003 24.612 24.612 0 01.155-.092 24.612 24.612 0 01.046-.026 24.612 24.612 0 01.164-.095 24.612 24.612 0 01.065-.037 24.612 24.612 0 0112.033-3.211zm78.845 29.534a4.922 4.922 0 01.044 0 4.922 4.922 0 012.553.718 4.922 4.922 0 011.647 6.763 4.922 4.922 0 01-6.747 1.658 4.922 4.922 0 01-.017-.011 4.922 4.922 0 01-1.176-.998 4.922 4.922 0 01-.045-.054 4.922 4.922 0 01-.066-.08 4.922 4.922 0 01-.053-.068 4.922 4.922 0 01-.276-.396 4.922 4.922 0 01-.043-.07 4.922 4.922 0 01-.005-.008 4.922 4.922 0 01-.03-.053 4.922 4.922 0 01-.023-.038 4.922 4.922 0 01-.007-.011 4.922 4.922 0 01-.08-.148 4.922 4.922 0 01-.042-.082 4.922 4.922 0 01-.194-.443 4.922 4.922 0 01-.03-.082 4.922 4.922 0 01-.062-.182 4.922 4.922 0 01-.028-.09 4.922 4.922 0 01-.03-.104 4.922 4.922 0 01-.01-.036 4.922 4.922 0 01-.015-.057 4.922 4.922 0 01-.019-.078 4.922 4.922 0 01-.09-.493 4.922 4.922 0 01-.007-.06 4.922 4.922 0 01-.03-.778 4.922 4.922 0 01.004-.051 4.922 4.922 0 01.003-.048 4.922 4.922 0 01.004-.056 4.922 4.922 0 01.003-.035 4.922 4.922 0 01.008-.087 4.922 4.922 0 01.214-1.03 4.922 4.922 0 01.023-.07 4.922 4.922 0 01.224-.549 4.922 4.922 0 01.028-.057 4.922 4.922 0 01.066-.13 4.922 4.922 0 01.034-.06 4.922 4.922 0 01.104-.182 4.922 4.922 0 01.211-.318 4.922 4.922 0 01.114-.152 4.922 4.922 0 01.06-.074 4.922 4.922 0 01.06-.074 4.922 4.922 0 01.126-.143 4.922 4.922 0 01.555-.52 4.922 4.922 0 01.075-.06 4.922 4.922 0 01.153-.112 4.922 4.922 0 01.029-.02 4.922 4.922 0 01.013-.01 4.922 4.922 0 012.771-.882zm-137.81 59.07a4.922 4.922 0 01.019 0 4.922 4.922 0 01.095.001 4.922 4.922 0 01.57.045 4.922 4.922 0 01.093.013 4.922 4.922 0 01.374.074 4.922 4.922 0 01.636.196 4.922 4.922 0 01.089.035 4.922 4.922 0 01.088.037 4.922 4.922 0 01.344.164 4.922 4.922 0 01.084.045 4.922 4.922 0 01.405.25 4.922 4.922 0 01.23.167 4.922 4.922 0 01.001 0 4.922 4.922 0 01.074.06 4.922 4.922 0 01.001 0 4.922 4.922 0 01.033.026 4.922 4.922 0 01.113.095 4.922 4.922 0 01.14.128 4.922 4.922 0 01.137.133 4.922 4.922 0 01.377.43 4.922 4.922 0 01.222.309 4.922 4.922 0 01.051.08 4.922 4.922 0 01.05.08 4.922 4.922 0 01.05.082 4.922 4.922 0 01.294.598 4.922 4.922 0 01.1.267 4.922 4.922 0 01.135.456 4.922 4.922 0 010 .001 4.922 4.922 0 01.088.467 4.922 4.922 0 01.002.011 4.922 4.922 0 01.03.273 4.922 4.922 0 010 .007 4.922 4.922 0 01.015.276 4.922 4.922 0 01.001.117 4.922 4.922 0 01-4.922 4.922 4.922 4.922 0 01-4.923-4.922 4.922 4.922 0 014.307-4.883 4.922 4.922 0 01.259-.026 4.922 4.922 0 01.144-.01 4.922 4.922 0 01.003 0 4.922 4.922 0 01.19-.004zm108.318 9.846a4.922 4.922 0 01.76.06 4.922 4.922 0 01.093.015 4.922 4.922 0 01.094.017 4.922 4.922 0 01.406.098 4.922 4.922 0 011.2.527 4.922 4.922 0 011.648 6.763 4.922 4.922 0 01-6.747 1.657 4.922 4.922 0 01-.017-.01 4.922 4.922 0 01-2.287-5.074 4.922 4.922 0 01.035-.176 4.922 4.922 0 01.003-.01 4.922 4.922 0 01.005-.02 4.922 4.922 0 01.015-.067 4.922 4.922 0 01.01-.034 4.922 4.922 0 01.016-.065 4.922 4.922 0 01.076-.263 4.922 4.922 0 01.004-.011 4.922 4.922 0 01.026-.08 4.922 4.922 0 01.004-.01 4.922 4.922 0 01.012-.032 4.922 4.922 0 01.02-.058 4.922 4.922 0 01.03-.079 4.922 4.922 0 01.001-.002 4.922 4.922 0 01.015-.037 4.922 4.922 0 01.024-.06 4.922 4.922 0 01.11-.25 4.922 4.922 0 01.006-.01 4.922 4.922 0 01.037-.076 4.922 4.922 0 01.002-.004 4.922 4.922 0 01.086-.164 4.922 4.922 0 01.006-.01 4.922 4.922 0 01.041-.074 4.922 4.922 0 01.003-.006 4.922 4.922 0 01.013-.021 4.922 4.922 0 01.039-.065 4.922 4.922 0 01.004-.007 4.922 4.922 0 01.701-.899 4.922 4.922 0 01.068-.067 4.922 4.922 0 01.068-.065 4.922 4.922 0 01.07-.065 4.922 4.922 0 01.072-.063 4.922 4.922 0 01.072-.062 4.922 4.922 0 01.38-.287 4.922 4.922 0 01.08-.053 4.922 4.922 0 01.93-.476 4.922 4.922 0 01.09-.033 4.922 4.922 0 01.089-.031 4.922 4.922 0 01.09-.03 4.922 4.922 0 01.554-.142 4.922 4.922 0 01.187-.032 4.922 4.922 0 01.094-.014 4.922 4.922 0 01.57-.044 4.922 4.922 0 01.095 0z"/>
    <path fill="none" stroke-width=".935" d="M30 100a15 15 0 00-15 15 15 15 0 0015 15 15 15 0 0015-15 15 15 0 00-15-15z"/>
  </symbol>
  <symbol id="contour" viewBox="0 0 210 297">
    <path fill-rule="evenodd" stroke-width="1.547" d="M99.931 0A100 100 0 001.544 82.5H-50v25H.282A100 100 0 00100 200a100 100 0 0099.718-92.5H245v-25h-46.543A100 100 0 00100 0a100 100 0 00-.069 0zm-.12 25a75 75 0 01.19 0 75 75 0 0175 75 75 75 0 01-75 75A75 75 0 0125 100a75 75 0 0174.811-75z"/>
  </symbol>
</svg>
